<svg xmlns="http://www.w3.org/2000/svg" xmlns:xlink="http://www.w3.org/1999/xlink" width="800" height="350" viewBox="0 0 3200 1400">
<defs>
  <clipPath id="clip920">
    <rect x="0" y="0" width="3200" height="1400"></rect>
  </clipPath>
</defs>
<path clip-path="url(#clip920)" d="M0 1400 L3200 1400 L3200 0 L0 0  Z" fill="#ffffff" fill-rule="evenodd" fill-opacity="1"></path>
<defs>
  <clipPath id="clip921">
    <rect x="640" y="0" width="2241" height="1400"></rect>
  </clipPath>
</defs>
<path clip-path="url(#clip920)" d="M274.523 1190.4 L2414.94 1190.4 L2414.94 47.2441 L274.523 47.2441  Z" fill="#ffffff" fill-rule="evenodd" fill-opacity="1"></path>
<defs>
  <clipPath id="clip922">
    <rect x="274" y="47" width="2141" height="1144"></rect>
  </clipPath>
</defs>
<polyline clip-path="url(#clip922)" style="stroke:#000000; stroke-linecap:round; stroke-linejoin:round; stroke-width:2; stroke-opacity:0.1; fill:none" points="335.101,1190.4 335.101,47.2441 "></polyline>
<polyline clip-path="url(#clip922)" style="stroke:#000000; stroke-linecap:round; stroke-linejoin:round; stroke-width:2; stroke-opacity:0.1; fill:none" points="723.421,1190.4 723.421,47.2441 "></polyline>
<polyline clip-path="url(#clip922)" style="stroke:#000000; stroke-linecap:round; stroke-linejoin:round; stroke-width:2; stroke-opacity:0.1; fill:none" points="1111.74,1190.4 1111.74,47.2441 "></polyline>
<polyline clip-path="url(#clip922)" style="stroke:#000000; stroke-linecap:round; stroke-linejoin:round; stroke-width:2; stroke-opacity:0.1; fill:none" points="1500.06,1190.4 1500.06,47.2441 "></polyline>
<polyline clip-path="url(#clip922)" style="stroke:#000000; stroke-linecap:round; stroke-linejoin:round; stroke-width:2; stroke-opacity:0.1; fill:none" points="1888.38,1190.4 1888.38,47.2441 "></polyline>
<polyline clip-path="url(#clip922)" style="stroke:#000000; stroke-linecap:round; stroke-linejoin:round; stroke-width:2; stroke-opacity:0.1; fill:none" points="2276.7,1190.4 2276.7,47.2441 "></polyline>
<polyline clip-path="url(#clip920)" style="stroke:#000000; stroke-linecap:round; stroke-linejoin:round; stroke-width:4; stroke-opacity:1; fill:none" points="274.523,1190.4 2414.94,1190.4 "></polyline>
<polyline clip-path="url(#clip920)" style="stroke:#000000; stroke-linecap:round; stroke-linejoin:round; stroke-width:4; stroke-opacity:1; fill:none" points="335.101,1190.4 335.101,1171.51 "></polyline>
<polyline clip-path="url(#clip920)" style="stroke:#000000; stroke-linecap:round; stroke-linejoin:round; stroke-width:4; stroke-opacity:1; fill:none" points="723.421,1190.4 723.421,1171.51 "></polyline>
<polyline clip-path="url(#clip920)" style="stroke:#000000; stroke-linecap:round; stroke-linejoin:round; stroke-width:4; stroke-opacity:1; fill:none" points="1111.74,1190.4 1111.74,1171.51 "></polyline>
<polyline clip-path="url(#clip920)" style="stroke:#000000; stroke-linecap:round; stroke-linejoin:round; stroke-width:4; stroke-opacity:1; fill:none" points="1500.06,1190.4 1500.06,1171.51 "></polyline>
<polyline clip-path="url(#clip920)" style="stroke:#000000; stroke-linecap:round; stroke-linejoin:round; stroke-width:4; stroke-opacity:1; fill:none" points="1888.38,1190.4 1888.38,1171.51 "></polyline>
<polyline clip-path="url(#clip920)" style="stroke:#000000; stroke-linecap:round; stroke-linejoin:round; stroke-width:4; stroke-opacity:1; fill:none" points="2276.7,1190.4 2276.7,1171.51 "></polyline>
<path clip-path="url(#clip920)" d="M304.858 1242.37 L334.534 1242.37 L334.534 1246.31 L304.858 1246.31 L304.858 1242.37 Z" fill="#000000" fill-rule="nonzero" fill-opacity="1"></path><path clip-path="url(#clip920)" d="M345.437 1255.27 L353.076 1255.27 L353.076 1228.9 L344.766 1230.57 L344.766 1226.31 L353.029 1224.64 L357.705 1224.64 L357.705 1255.27 L365.344 1255.27 L365.344 1259.2 L345.437 1259.2 L345.437 1255.27 Z" fill="#000000" fill-rule="nonzero" fill-opacity="1"></path><path clip-path="url(#clip920)" d="M723.421 1227.72 Q719.81 1227.72 717.981 1231.29 Q716.176 1234.83 716.176 1241.96 Q716.176 1249.06 717.981 1252.63 Q719.81 1256.17 723.421 1256.17 Q727.055 1256.17 728.861 1252.63 Q730.69 1249.06 730.69 1241.96 Q730.69 1234.83 728.861 1231.29 Q727.055 1227.72 723.421 1227.72 M723.421 1224.02 Q729.231 1224.02 732.287 1228.62 Q735.366 1233.21 735.366 1241.96 Q735.366 1250.68 732.287 1255.29 Q729.231 1259.87 723.421 1259.87 Q717.611 1259.87 714.532 1255.29 Q711.477 1250.68 711.477 1241.96 Q711.477 1233.21 714.532 1228.62 Q717.611 1224.02 723.421 1224.02 Z" fill="#000000" fill-rule="nonzero" fill-opacity="1"></path><path clip-path="url(#clip920)" d="M1102.12 1255.27 L1109.76 1255.27 L1109.76 1228.9 L1101.45 1230.57 L1101.45 1226.31 L1109.72 1224.64 L1114.39 1224.64 L1114.39 1255.27 L1122.03 1255.27 L1122.03 1259.2 L1102.12 1259.2 L1102.12 1255.27 Z" fill="#000000" fill-rule="nonzero" fill-opacity="1"></path><path clip-path="url(#clip920)" d="M1494.71 1255.27 L1511.03 1255.27 L1511.03 1259.2 L1489.09 1259.2 L1489.09 1255.27 Q1491.75 1252.51 1496.33 1247.88 Q1500.94 1243.23 1502.12 1241.89 Q1504.37 1239.36 1505.25 1237.63 Q1506.15 1235.87 1506.15 1234.18 Q1506.15 1231.43 1504.2 1229.69 Q1502.28 1227.95 1499.18 1227.95 Q1496.98 1227.95 1494.53 1228.72 Q1492.1 1229.48 1489.32 1231.03 L1489.32 1226.31 Q1492.14 1225.18 1494.6 1224.6 Q1497.05 1224.02 1499.09 1224.02 Q1504.46 1224.02 1507.65 1226.7 Q1510.85 1229.39 1510.85 1233.88 Q1510.85 1236.01 1510.04 1237.93 Q1509.25 1239.83 1507.14 1242.42 Q1506.57 1243.09 1503.46 1246.31 Q1500.36 1249.5 1494.71 1255.27 Z" fill="#000000" fill-rule="nonzero" fill-opacity="1"></path><path clip-path="url(#clip920)" d="M1892.63 1240.57 Q1895.98 1241.29 1897.86 1243.55 Q1899.76 1245.82 1899.76 1249.16 Q1899.76 1254.27 1896.24 1257.07 Q1892.72 1259.87 1886.24 1259.87 Q1884.06 1259.87 1881.75 1259.43 Q1879.46 1259.02 1877 1258.16 L1877 1253.65 Q1878.95 1254.78 1881.26 1255.36 Q1883.58 1255.94 1886.1 1255.94 Q1890.5 1255.94 1892.79 1254.2 Q1895.11 1252.47 1895.11 1249.16 Q1895.11 1246.1 1892.95 1244.39 Q1890.82 1242.65 1887 1242.65 L1882.98 1242.65 L1882.98 1238.81 L1887.19 1238.81 Q1890.64 1238.81 1892.47 1237.44 Q1894.3 1236.05 1894.3 1233.46 Q1894.3 1230.8 1892.4 1229.39 Q1890.52 1227.95 1887 1227.95 Q1885.08 1227.95 1882.88 1228.37 Q1880.68 1228.79 1878.05 1229.67 L1878.05 1225.5 Q1880.71 1224.76 1883.02 1224.39 Q1885.36 1224.02 1887.42 1224.02 Q1892.74 1224.02 1895.85 1226.45 Q1898.95 1228.86 1898.95 1232.98 Q1898.95 1235.85 1897.3 1237.84 Q1895.66 1239.8 1892.63 1240.57 Z" fill="#000000" fill-rule="nonzero" fill-opacity="1"></path><path clip-path="url(#clip920)" d="M2279.71 1228.72 L2267.9 1247.17 L2279.71 1247.17 L2279.71 1228.72 M2278.48 1224.64 L2284.36 1224.64 L2284.36 1247.17 L2289.29 1247.17 L2289.29 1251.05 L2284.36 1251.05 L2284.36 1259.2 L2279.71 1259.2 L2279.71 1251.05 L2264.11 1251.05 L2264.11 1246.54 L2278.48 1224.64 Z" fill="#000000" fill-rule="nonzero" fill-opacity="1"></path><path clip-path="url(#clip920)" d="M1037.91 1299.75 L1046.56 1299.75 L1067.63 1339.5 L1067.63 1299.75 L1073.87 1299.75 L1073.87 1347.27 L1065.21 1347.27 L1044.14 1307.51 L1044.14 1347.27 L1037.91 1347.27 L1037.91 1299.75 Z" fill="#000000" fill-rule="nonzero" fill-opacity="1"></path><path clip-path="url(#clip920)" d="M1100.23 1315.72 Q1095.52 1315.72 1092.78 1319.42 Q1090.04 1323.08 1090.04 1329.47 Q1090.04 1335.87 1092.75 1339.56 Q1095.48 1343.22 1100.23 1343.22 Q1104.9 1343.22 1107.64 1339.53 Q1110.38 1335.84 1110.38 1329.47 Q1110.38 1323.14 1107.64 1319.45 Q1104.9 1315.72 1100.23 1315.72 M1100.23 1310.76 Q1107.87 1310.76 1112.23 1315.72 Q1116.59 1320.69 1116.59 1329.47 Q1116.59 1338.23 1112.23 1343.22 Q1107.87 1348.19 1100.23 1348.19 Q1092.56 1348.19 1088.19 1343.22 Q1083.87 1338.23 1083.87 1329.47 Q1083.87 1320.69 1088.19 1315.72 Q1092.56 1310.76 1100.23 1310.76 Z" fill="#000000" fill-rule="nonzero" fill-opacity="1"></path><path clip-path="url(#clip920)" d="M1123.75 1311.62 L1151.57 1311.62 L1151.57 1316.97 L1129.54 1342.59 L1151.57 1342.59 L1151.57 1347.27 L1122.95 1347.27 L1122.95 1341.92 L1144.98 1316.3 L1123.75 1316.3 L1123.75 1311.62 Z" fill="#000000" fill-rule="nonzero" fill-opacity="1"></path><path clip-path="url(#clip920)" d="M1157.96 1311.62 L1185.78 1311.62 L1185.78 1316.97 L1163.76 1342.59 L1185.78 1342.59 L1185.78 1347.27 L1157.17 1347.27 L1157.17 1341.92 L1179.19 1316.3 L1157.96 1316.3 L1157.96 1311.62 Z" fill="#000000" fill-rule="nonzero" fill-opacity="1"></path><path clip-path="url(#clip920)" d="M1194.73 1297.74 L1200.58 1297.74 L1200.58 1347.27 L1194.73 1347.27 L1194.73 1297.74 Z" fill="#000000" fill-rule="nonzero" fill-opacity="1"></path><path clip-path="url(#clip920)" d="M1243.33 1327.98 L1243.33 1330.84 L1216.4 1330.84 Q1216.78 1336.89 1220.03 1340.07 Q1223.31 1343.22 1229.13 1343.22 Q1232.51 1343.22 1235.66 1342.4 Q1238.84 1341.57 1241.96 1339.91 L1241.96 1345.45 Q1238.81 1346.79 1235.5 1347.49 Q1232.19 1348.19 1228.78 1348.19 Q1220.25 1348.19 1215.25 1343.22 Q1210.29 1338.26 1210.29 1329.79 Q1210.29 1321.04 1215 1315.92 Q1219.74 1310.76 1227.76 1310.76 Q1234.96 1310.76 1239.13 1315.41 Q1243.33 1320.02 1243.33 1327.98 M1237.47 1326.26 Q1237.41 1321.45 1234.77 1318.59 Q1232.16 1315.72 1227.83 1315.72 Q1222.93 1315.72 1219.97 1318.49 Q1217.04 1321.26 1216.59 1326.29 L1237.47 1326.26 Z" fill="#000000" fill-rule="nonzero" fill-opacity="1"></path><path clip-path="url(#clip920)" d="M1273.66 1297.74 L1279.52 1297.74 L1279.52 1347.27 L1273.66 1347.27 L1273.66 1297.74 Z" fill="#000000" fill-rule="nonzero" fill-opacity="1"></path><path clip-path="url(#clip920)" d="M1305.58 1315.72 Q1300.87 1315.72 1298.14 1319.42 Q1295.4 1323.08 1295.4 1329.47 Q1295.4 1335.87 1298.1 1339.56 Q1300.84 1343.22 1305.58 1343.22 Q1310.26 1343.22 1313 1339.53 Q1315.74 1335.84 1315.74 1329.47 Q1315.74 1323.14 1313 1319.45 Q1310.26 1315.72 1305.58 1315.72 M1305.58 1310.76 Q1313.22 1310.76 1317.58 1315.72 Q1321.94 1320.69 1321.94 1329.47 Q1321.94 1338.23 1317.58 1343.22 Q1313.22 1348.19 1305.58 1348.19 Q1297.91 1348.19 1293.55 1343.22 Q1289.22 1338.23 1289.22 1329.47 Q1289.22 1320.69 1293.55 1315.72 Q1297.91 1310.76 1305.58 1310.76 Z" fill="#000000" fill-rule="nonzero" fill-opacity="1"></path><path clip-path="url(#clip920)" d="M1357.31 1312.99 L1357.31 1318.46 Q1354.82 1317.09 1352.31 1316.42 Q1349.83 1315.72 1347.28 1315.72 Q1341.58 1315.72 1338.43 1319.35 Q1335.28 1322.95 1335.28 1329.47 Q1335.28 1336 1338.43 1339.63 Q1341.58 1343.22 1347.28 1343.22 Q1349.83 1343.22 1352.31 1342.56 Q1354.82 1341.86 1357.31 1340.49 L1357.31 1345.9 Q1354.85 1347.04 1352.21 1347.62 Q1349.6 1348.19 1346.64 1348.19 Q1338.59 1348.19 1333.85 1343.13 Q1329.11 1338.07 1329.11 1329.47 Q1329.11 1320.75 1333.88 1315.76 Q1338.69 1310.76 1347.02 1310.76 Q1349.73 1310.76 1352.31 1311.33 Q1354.89 1311.87 1357.31 1312.99 Z" fill="#000000" fill-rule="nonzero" fill-opacity="1"></path><path clip-path="url(#clip920)" d="M1383.69 1329.35 Q1376.59 1329.35 1373.86 1330.97 Q1371.12 1332.59 1371.12 1336.51 Q1371.12 1339.63 1373.16 1341.47 Q1375.22 1343.29 1378.76 1343.29 Q1383.63 1343.29 1386.56 1339.85 Q1389.52 1336.38 1389.52 1330.65 L1389.52 1329.35 L1383.69 1329.35 M1395.37 1326.93 L1395.37 1347.27 L1389.52 1347.27 L1389.52 1341.86 Q1387.51 1345.1 1384.52 1346.66 Q1381.53 1348.19 1377.2 1348.19 Q1371.72 1348.19 1368.48 1345.13 Q1365.26 1342.05 1365.26 1336.89 Q1365.26 1330.88 1369.27 1327.82 Q1373.31 1324.76 1381.3 1324.76 L1389.52 1324.76 L1389.52 1324.19 Q1389.52 1320.15 1386.84 1317.95 Q1384.2 1315.72 1379.39 1315.72 Q1376.34 1315.72 1373.44 1316.46 Q1370.55 1317.19 1367.87 1318.65 L1367.87 1313.24 Q1371.09 1312 1374.11 1311.4 Q1377.13 1310.76 1380 1310.76 Q1387.73 1310.76 1391.55 1314.77 Q1395.37 1318.78 1395.37 1326.93 Z" fill="#000000" fill-rule="nonzero" fill-opacity="1"></path><path clip-path="url(#clip920)" d="M1413.23 1301.5 L1413.23 1311.62 L1425.29 1311.62 L1425.29 1316.17 L1413.23 1316.17 L1413.23 1335.52 Q1413.23 1339.88 1414.41 1341.12 Q1415.62 1342.37 1419.28 1342.37 L1425.29 1342.37 L1425.29 1347.27 L1419.28 1347.27 Q1412.5 1347.27 1409.92 1344.75 Q1407.34 1342.21 1407.34 1335.52 L1407.34 1316.17 L1403.04 1316.17 L1403.04 1311.62 L1407.34 1311.62 L1407.34 1301.5 L1413.23 1301.5 Z" fill="#000000" fill-rule="nonzero" fill-opacity="1"></path><path clip-path="url(#clip920)" d="M1432.99 1311.62 L1438.85 1311.62 L1438.85 1347.27 L1432.99 1347.27 L1432.99 1311.62 M1432.99 1297.74 L1438.85 1297.74 L1438.85 1305.16 L1432.99 1305.16 L1432.99 1297.74 Z" fill="#000000" fill-rule="nonzero" fill-opacity="1"></path><path clip-path="url(#clip920)" d="M1464.92 1315.72 Q1460.21 1315.72 1457.47 1319.42 Q1454.73 1323.08 1454.73 1329.47 Q1454.73 1335.87 1457.44 1339.56 Q1460.18 1343.22 1464.92 1343.22 Q1469.6 1343.22 1472.33 1339.53 Q1475.07 1335.84 1475.07 1329.47 Q1475.07 1323.14 1472.33 1319.45 Q1469.6 1315.72 1464.92 1315.72 M1464.92 1310.76 Q1472.56 1310.76 1476.92 1315.72 Q1481.28 1320.69 1481.28 1329.47 Q1481.28 1338.23 1476.92 1343.22 Q1472.56 1348.19 1464.92 1348.19 Q1457.25 1348.19 1452.89 1343.22 Q1448.56 1338.23 1448.56 1329.47 Q1448.56 1320.69 1452.89 1315.72 Q1457.25 1310.76 1464.92 1310.76 Z" fill="#000000" fill-rule="nonzero" fill-opacity="1"></path><path clip-path="url(#clip920)" d="M1520.62 1325.75 L1520.62 1347.27 L1514.76 1347.27 L1514.76 1325.94 Q1514.76 1320.88 1512.79 1318.37 Q1510.81 1315.85 1506.87 1315.85 Q1502.13 1315.85 1499.39 1318.88 Q1496.65 1321.9 1496.65 1327.12 L1496.65 1347.27 L1490.76 1347.27 L1490.76 1311.62 L1496.65 1311.62 L1496.65 1317.16 Q1498.75 1313.94 1501.58 1312.35 Q1504.45 1310.76 1508.17 1310.76 Q1514.32 1310.76 1517.47 1314.58 Q1520.62 1318.37 1520.62 1325.75 Z" fill="#000000" fill-rule="nonzero" fill-opacity="1"></path><path clip-path="url(#clip920)" d="M1567.09 1297.81 Q1562.82 1305.13 1560.75 1312.29 Q1558.68 1319.45 1558.68 1326.8 Q1558.68 1334.15 1560.75 1341.38 Q1562.85 1348.57 1567.09 1355.86 L1561.99 1355.86 Q1557.22 1348.38 1554.83 1341.16 Q1552.48 1333.93 1552.48 1326.8 Q1552.48 1319.7 1554.83 1312.51 Q1557.19 1305.32 1561.99 1297.81 L1567.09 1297.81 Z" fill="#000000" fill-rule="nonzero" fill-opacity="1"></path><path clip-path="url(#clip920)" d="M1578.45 1311.62 L1584.31 1311.62 L1584.31 1347.27 L1578.45 1347.27 L1578.45 1311.62 M1578.45 1297.74 L1584.31 1297.74 L1584.31 1305.16 L1578.45 1305.16 L1578.45 1297.74 Z" fill="#000000" fill-rule="nonzero" fill-opacity="1"></path><path clip-path="url(#clip920)" d="M1626.19 1325.75 L1626.19 1347.27 L1620.34 1347.27 L1620.34 1325.94 Q1620.34 1320.88 1618.36 1318.37 Q1616.39 1315.85 1612.44 1315.85 Q1607.7 1315.85 1604.96 1318.88 Q1602.23 1321.9 1602.23 1327.12 L1602.23 1347.27 L1596.34 1347.27 L1596.34 1311.62 L1602.23 1311.62 L1602.23 1317.16 Q1604.33 1313.94 1607.16 1312.35 Q1610.02 1310.76 1613.75 1310.76 Q1619.89 1310.76 1623.04 1314.58 Q1626.19 1318.37 1626.19 1325.75 Z" fill="#000000" fill-rule="nonzero" fill-opacity="1"></path><path clip-path="url(#clip920)" d="M1636.95 1297.81 L1642.04 1297.81 Q1646.82 1305.32 1649.17 1312.51 Q1651.56 1319.7 1651.56 1326.8 Q1651.56 1333.93 1649.17 1341.16 Q1646.82 1348.38 1642.04 1355.86 L1636.95 1355.86 Q1641.18 1348.57 1643.25 1341.38 Q1645.35 1334.15 1645.35 1326.8 Q1645.35 1319.45 1643.25 1312.29 Q1641.18 1305.13 1636.95 1297.81 Z" fill="#000000" fill-rule="nonzero" fill-opacity="1"></path><polyline clip-path="url(#clip922)" style="stroke:#000000; stroke-linecap:round; stroke-linejoin:round; stroke-width:2; stroke-opacity:0.1; fill:none" points="274.523,1148.5 2414.94,1148.5 "></polyline>
<polyline clip-path="url(#clip922)" style="stroke:#000000; stroke-linecap:round; stroke-linejoin:round; stroke-width:2; stroke-opacity:0.1; fill:none" points="274.523,881.277 2414.94,881.277 "></polyline>
<polyline clip-path="url(#clip922)" style="stroke:#000000; stroke-linecap:round; stroke-linejoin:round; stroke-width:2; stroke-opacity:0.1; fill:none" points="274.523,614.051 2414.94,614.051 "></polyline>
<polyline clip-path="url(#clip922)" style="stroke:#000000; stroke-linecap:round; stroke-linejoin:round; stroke-width:2; stroke-opacity:0.1; fill:none" points="274.523,346.824 2414.94,346.824 "></polyline>
<polyline clip-path="url(#clip922)" style="stroke:#000000; stroke-linecap:round; stroke-linejoin:round; stroke-width:2; stroke-opacity:0.1; fill:none" points="274.523,79.5976 2414.94,79.5976 "></polyline>
<polyline clip-path="url(#clip920)" style="stroke:#000000; stroke-linecap:round; stroke-linejoin:round; stroke-width:4; stroke-opacity:1; fill:none" points="274.523,1190.4 274.523,47.2441 "></polyline>
<polyline clip-path="url(#clip920)" style="stroke:#000000; stroke-linecap:round; stroke-linejoin:round; stroke-width:4; stroke-opacity:1; fill:none" points="274.523,1148.5 288.577,1148.5 "></polyline>
<polyline clip-path="url(#clip920)" style="stroke:#000000; stroke-linecap:round; stroke-linejoin:round; stroke-width:4; stroke-opacity:1; fill:none" points="274.523,881.277 288.577,881.277 "></polyline>
<polyline clip-path="url(#clip920)" style="stroke:#000000; stroke-linecap:round; stroke-linejoin:round; stroke-width:4; stroke-opacity:1; fill:none" points="274.523,614.051 288.577,614.051 "></polyline>
<polyline clip-path="url(#clip920)" style="stroke:#000000; stroke-linecap:round; stroke-linejoin:round; stroke-width:4; stroke-opacity:1; fill:none" points="274.523,346.824 288.577,346.824 "></polyline>
<polyline clip-path="url(#clip920)" style="stroke:#000000; stroke-linecap:round; stroke-linejoin:round; stroke-width:4; stroke-opacity:1; fill:none" points="274.523,79.5976 288.577,79.5976 "></polyline>
<path clip-path="url(#clip920)" d="M170.945 1134.3 Q167.334 1134.3 165.505 1137.87 Q163.7 1141.41 163.7 1148.54 Q163.7 1155.64 165.505 1159.21 Q167.334 1162.75 170.945 1162.75 Q174.579 1162.75 176.385 1159.21 Q178.213 1155.64 178.213 1148.54 Q178.213 1141.41 176.385 1137.87 Q174.579 1134.3 170.945 1134.3 M170.945 1130.6 Q176.755 1130.6 179.811 1135.21 Q182.889 1139.79 182.889 1148.54 Q182.889 1157.27 179.811 1161.87 Q176.755 1166.46 170.945 1166.46 Q165.135 1166.46 162.056 1161.87 Q159.001 1157.27 159.001 1148.54 Q159.001 1139.79 162.056 1135.21 Q165.135 1130.6 170.945 1130.6 Z" fill="#000000" fill-rule="nonzero" fill-opacity="1"></path><path clip-path="url(#clip920)" d="M191.107 1159.9 L195.991 1159.9 L195.991 1165.78 L191.107 1165.78 L191.107 1159.9 Z" fill="#000000" fill-rule="nonzero" fill-opacity="1"></path><path clip-path="url(#clip920)" d="M210.204 1161.85 L226.523 1161.85 L226.523 1165.78 L204.579 1165.78 L204.579 1161.85 Q207.241 1159.09 211.824 1154.46 Q216.431 1149.81 217.611 1148.47 Q219.857 1145.95 220.736 1144.21 Q221.639 1142.45 221.639 1140.76 Q221.639 1138.01 219.695 1136.27 Q217.773 1134.53 214.672 1134.53 Q212.473 1134.53 210.019 1135.3 Q207.588 1136.06 204.811 1137.61 L204.811 1132.89 Q207.635 1131.76 210.088 1131.18 Q212.542 1130.6 214.579 1130.6 Q219.949 1130.6 223.144 1133.28 Q226.338 1135.97 226.338 1140.46 Q226.338 1142.59 225.528 1144.51 Q224.741 1146.41 222.635 1149 Q222.056 1149.67 218.954 1152.89 Q215.852 1156.08 210.204 1161.85 Z" fill="#000000" fill-rule="nonzero" fill-opacity="1"></path><path clip-path="url(#clip920)" d="M168.862 867.076 Q165.251 867.076 163.422 870.641 Q161.616 874.182 161.616 881.312 Q161.616 888.418 163.422 891.983 Q165.251 895.525 168.862 895.525 Q172.496 895.525 174.301 891.983 Q176.13 888.418 176.13 881.312 Q176.13 874.182 174.301 870.641 Q172.496 867.076 168.862 867.076 M168.862 863.372 Q174.672 863.372 177.727 867.979 Q180.806 872.562 180.806 881.312 Q180.806 890.039 177.727 894.645 Q174.672 899.228 168.862 899.228 Q163.052 899.228 159.973 894.645 Q156.917 890.039 156.917 881.312 Q156.917 872.562 159.973 867.979 Q163.052 863.372 168.862 863.372 Z" fill="#000000" fill-rule="nonzero" fill-opacity="1"></path><path clip-path="url(#clip920)" d="M189.024 892.678 L193.908 892.678 L193.908 898.557 L189.024 898.557 L189.024 892.678 Z" fill="#000000" fill-rule="nonzero" fill-opacity="1"></path><path clip-path="url(#clip920)" d="M216.94 868.071 L205.135 886.52 L216.94 886.52 L216.94 868.071 M215.713 863.997 L221.593 863.997 L221.593 886.52 L226.523 886.52 L226.523 890.409 L221.593 890.409 L221.593 898.557 L216.94 898.557 L216.94 890.409 L201.338 890.409 L201.338 885.895 L215.713 863.997 Z" fill="#000000" fill-rule="nonzero" fill-opacity="1"></path><path clip-path="url(#clip920)" d="M169.186 599.849 Q165.575 599.849 163.746 603.414 Q161.94 606.956 161.94 614.085 Q161.94 621.192 163.746 624.757 Q165.575 628.298 169.186 628.298 Q172.82 628.298 174.626 624.757 Q176.454 621.192 176.454 614.085 Q176.454 606.956 174.626 603.414 Q172.82 599.849 169.186 599.849 M169.186 596.146 Q174.996 596.146 178.051 600.752 Q181.13 605.335 181.13 614.085 Q181.13 622.812 178.051 627.419 Q174.996 632.002 169.186 632.002 Q163.376 632.002 160.297 627.419 Q157.241 622.812 157.241 614.085 Q157.241 605.335 160.297 600.752 Q163.376 596.146 169.186 596.146 Z" fill="#000000" fill-rule="nonzero" fill-opacity="1"></path><path clip-path="url(#clip920)" d="M189.348 625.451 L194.232 625.451 L194.232 631.331 L189.348 631.331 L189.348 625.451 Z" fill="#000000" fill-rule="nonzero" fill-opacity="1"></path><path clip-path="url(#clip920)" d="M214.996 612.187 Q211.848 612.187 209.996 614.34 Q208.167 616.493 208.167 620.243 Q208.167 623.97 209.996 626.146 Q211.848 628.298 214.996 628.298 Q218.144 628.298 219.973 626.146 Q221.824 623.97 221.824 620.243 Q221.824 616.493 219.973 614.34 Q218.144 612.187 214.996 612.187 M224.278 597.535 L224.278 601.794 Q222.519 600.96 220.713 600.521 Q218.931 600.081 217.172 600.081 Q212.542 600.081 210.088 603.206 Q207.658 606.331 207.311 612.65 Q208.676 610.636 210.736 609.572 Q212.797 608.484 215.273 608.484 Q220.482 608.484 223.491 611.655 Q226.523 614.803 226.523 620.243 Q226.523 625.567 223.375 628.784 Q220.227 632.002 214.996 632.002 Q209 632.002 205.829 627.419 Q202.658 622.812 202.658 614.085 Q202.658 605.891 206.547 601.03 Q210.436 596.146 216.986 596.146 Q218.746 596.146 220.528 596.493 Q222.334 596.84 224.278 597.535 Z" fill="#000000" fill-rule="nonzero" fill-opacity="1"></path><path clip-path="url(#clip920)" d="M169.44 332.623 Q165.829 332.623 164.001 336.188 Q162.195 339.729 162.195 346.859 Q162.195 353.965 164.001 357.53 Q165.829 361.072 169.44 361.072 Q173.075 361.072 174.88 357.53 Q176.709 353.965 176.709 346.859 Q176.709 339.729 174.88 336.188 Q173.075 332.623 169.44 332.623 M169.44 328.919 Q175.251 328.919 178.306 333.526 Q181.385 338.109 181.385 346.859 Q181.385 355.586 178.306 360.192 Q175.251 364.775 169.44 364.775 Q163.63 364.775 160.552 360.192 Q157.496 355.586 157.496 346.859 Q157.496 338.109 160.552 333.526 Q163.63 328.919 169.44 328.919 Z" fill="#000000" fill-rule="nonzero" fill-opacity="1"></path><path clip-path="url(#clip920)" d="M189.602 358.225 L194.487 358.225 L194.487 364.104 L189.602 364.104 L189.602 358.225 Z" fill="#000000" fill-rule="nonzero" fill-opacity="1"></path><path clip-path="url(#clip920)" d="M214.672 347.692 Q211.338 347.692 209.417 349.475 Q207.519 351.257 207.519 354.382 Q207.519 357.507 209.417 359.289 Q211.338 361.072 214.672 361.072 Q218.005 361.072 219.926 359.289 Q221.847 357.484 221.847 354.382 Q221.847 351.257 219.926 349.475 Q218.028 347.692 214.672 347.692 M209.996 345.701 Q206.986 344.961 205.297 342.901 Q203.63 340.84 203.63 337.877 Q203.63 333.734 206.57 331.327 Q209.533 328.919 214.672 328.919 Q219.834 328.919 222.773 331.327 Q225.713 333.734 225.713 337.877 Q225.713 340.84 224.023 342.901 Q222.357 344.961 219.371 345.701 Q222.75 346.489 224.625 348.78 Q226.523 351.072 226.523 354.382 Q226.523 359.405 223.445 362.09 Q220.389 364.775 214.672 364.775 Q208.954 364.775 205.875 362.09 Q202.82 359.405 202.82 354.382 Q202.82 351.072 204.718 348.78 Q206.616 346.489 209.996 345.701 M208.283 338.317 Q208.283 341.002 209.949 342.507 Q211.639 344.012 214.672 344.012 Q217.681 344.012 219.371 342.507 Q221.084 341.002 221.084 338.317 Q221.084 335.632 219.371 334.127 Q217.681 332.623 214.672 332.623 Q211.639 332.623 209.949 334.127 Q208.283 335.632 208.283 338.317 Z" fill="#000000" fill-rule="nonzero" fill-opacity="1"></path><path clip-path="url(#clip920)" d="M160.158 92.9425 L167.797 92.9425 L167.797 66.5769 L159.487 68.2435 L159.487 63.9843 L167.751 62.3176 L172.426 62.3176 L172.426 92.9425 L180.065 92.9425 L180.065 96.8776 L160.158 96.8776 L160.158 92.9425 Z" fill="#000000" fill-rule="nonzero" fill-opacity="1"></path><path clip-path="url(#clip920)" d="M189.51 90.998 L194.394 90.998 L194.394 96.8776 L189.51 96.8776 L189.51 90.998 Z" fill="#000000" fill-rule="nonzero" fill-opacity="1"></path><path clip-path="url(#clip920)" d="M214.579 65.3963 Q210.968 65.3963 209.139 68.9611 Q207.334 72.5028 207.334 79.6324 Q207.334 86.7388 209.139 90.3036 Q210.968 93.8452 214.579 93.8452 Q218.213 93.8452 220.019 90.3036 Q221.847 86.7388 221.847 79.6324 Q221.847 72.5028 220.019 68.9611 Q218.213 65.3963 214.579 65.3963 M214.579 61.6926 Q220.389 61.6926 223.445 66.2991 Q226.523 70.8824 226.523 79.6324 Q226.523 88.3592 223.445 92.9656 Q220.389 97.5489 214.579 97.5489 Q208.769 97.5489 205.69 92.9656 Q202.635 88.3592 202.635 79.6324 Q202.635 70.8824 205.69 66.2991 Q208.769 61.6926 214.579 61.6926 Z" fill="#000000" fill-rule="nonzero" fill-opacity="1"></path><path clip-path="url(#clip920)" d="M52.4248 792.193 L70.2806 792.193 L70.2806 784.109 Q70.2806 779.621 67.9571 777.17 Q65.6337 774.72 61.3368 774.72 Q57.0718 774.72 54.7483 777.17 Q52.4248 779.621 52.4248 784.109 L52.4248 792.193 M47.1413 798.623 L47.1413 784.109 Q47.1413 776.12 50.7697 772.046 Q54.3664 767.94 61.3368 767.94 Q68.3709 767.94 71.9675 772.046 Q75.5642 776.12 75.5642 784.109 L75.5642 792.193 L94.6613 792.193 L94.6613 798.623 L47.1413 798.623 Z" fill="#000000" fill-rule="nonzero" fill-opacity="1"></path><path clip-path="url(#clip920)" d="M47.1413 749.161 L47.1413 743.75 L100.709 760.301 L100.709 765.712 L47.1413 749.161 Z" fill="#000000" fill-rule="nonzero" fill-opacity="1"></path><path clip-path="url(#clip920)" d="M52.4248 730.923 L70.2806 730.923 L70.2806 722.839 Q70.2806 718.351 67.9571 715.9 Q65.6337 713.45 61.3368 713.45 Q57.0718 713.45 54.7483 715.9 Q52.4248 718.351 52.4248 722.839 L52.4248 730.923 M47.1413 737.353 L47.1413 722.839 Q47.1413 714.85 50.7697 710.776 Q54.3664 706.67 61.3368 706.67 Q68.3709 706.67 71.9675 710.776 Q75.5642 714.85 75.5642 722.839 L75.5642 730.923 L94.6613 730.923 L94.6613 737.353 L47.1413 737.353 Z" fill="#000000" fill-rule="nonzero" fill-opacity="1"></path><path clip-path="url(#clip920)" d="M76.7418 685.027 Q76.7418 692.125 78.3651 694.862 Q79.9883 697.599 83.9032 697.599 Q87.0224 697.599 88.8685 695.562 Q90.6827 693.493 90.6827 689.96 Q90.6827 685.09 87.2452 682.162 Q83.7759 679.202 78.0468 679.202 L76.7418 679.202 L76.7418 685.027 M74.3229 673.346 L94.6613 673.346 L94.6613 679.202 L89.2504 679.202 Q92.4969 681.207 94.0565 684.199 Q95.5843 687.191 95.5843 691.52 Q95.5843 696.994 92.5288 700.241 Q89.4414 703.455 84.2852 703.455 Q78.2696 703.455 75.214 699.445 Q72.1585 695.403 72.1585 687.414 L72.1585 679.202 L71.5856 679.202 Q67.5434 679.202 65.3472 681.876 Q63.1192 684.517 63.1192 689.324 Q63.1192 692.379 63.8513 695.276 Q64.5833 698.172 66.0474 700.846 L60.6366 700.846 Q59.3953 697.631 58.7905 694.607 Q58.154 691.583 58.154 688.719 Q58.154 680.985 62.1644 677.165 Q66.1747 673.346 74.3229 673.346 Z" fill="#000000" fill-rule="nonzero" fill-opacity="1"></path><path clip-path="url(#clip920)" d="M65.8565 633.528 Q61.9097 631.332 60.0318 628.276 Q58.154 625.221 58.154 621.083 Q58.154 615.513 62.0689 612.49 Q65.9519 609.466 73.1452 609.466 L94.6613 609.466 L94.6613 615.354 L73.3362 615.354 Q68.2118 615.354 65.7291 617.168 Q63.2465 618.983 63.2465 622.706 Q63.2465 627.258 66.2702 629.9 Q69.2939 632.542 74.5138 632.542 L94.6613 632.542 L94.6613 638.43 L73.3362 638.43 Q68.1799 638.43 65.7291 640.244 Q63.2465 642.058 63.2465 645.846 Q63.2465 650.334 66.3021 652.975 Q69.3258 655.617 74.5138 655.617 L94.6613 655.617 L94.6613 661.505 L59.0133 661.505 L59.0133 655.617 L64.5515 655.617 Q61.2732 653.612 59.7136 650.811 Q58.154 648.01 58.154 644.159 Q58.154 640.276 60.1273 637.57 Q62.1007 634.833 65.8565 633.528 Z" fill="#000000" fill-rule="nonzero" fill-opacity="1"></path><path clip-path="url(#clip920)" d="M76.8691 572.195 Q70.4079 572.195 66.7477 574.868 Q63.0556 577.51 63.0556 582.157 Q63.0556 586.804 66.7477 589.477 Q70.4079 592.119 76.8691 592.119 Q83.3303 592.119 87.0224 589.477 Q90.6827 586.804 90.6827 582.157 Q90.6827 577.51 87.0224 574.868 Q83.3303 572.195 76.8691 572.195 M64.4242 592.119 Q61.2413 590.273 59.7136 587.472 Q58.154 584.64 58.154 580.725 Q58.154 574.232 63.3102 570.189 Q68.4664 566.115 76.8691 566.115 Q85.2719 566.115 90.4281 570.189 Q95.5843 574.232 95.5843 580.725 Q95.5843 584.64 94.0565 587.472 Q92.4969 590.273 89.3141 592.119 L94.6613 592.119 L94.6613 598.008 L45.1361 598.008 L45.1361 592.119 L64.4242 592.119 Z" fill="#000000" fill-rule="nonzero" fill-opacity="1"></path><path clip-path="url(#clip920)" d="M59.0133 556.408 L59.0133 550.551 L94.6613 550.551 L94.6613 556.408 L59.0133 556.408 M45.1361 556.408 L45.1361 550.551 L52.5521 550.551 L52.5521 556.408 L45.1361 556.408 Z" fill="#000000" fill-rule="nonzero" fill-opacity="1"></path><path clip-path="url(#clip920)" d="M75.3732 507.805 L78.2378 507.805 L78.2378 534.732 Q84.2852 534.35 87.468 531.104 Q90.6191 527.826 90.6191 522.001 Q90.6191 518.627 89.7915 515.476 Q88.964 512.293 87.3089 509.174 L92.8471 509.174 Q94.1839 512.325 94.8841 515.635 Q95.5843 518.945 95.5843 522.351 Q95.5843 530.881 90.6191 535.878 Q85.6538 540.843 77.1874 540.843 Q68.4346 540.843 63.3102 536.133 Q58.154 531.39 58.154 523.37 Q58.154 516.176 62.8009 512.007 Q67.4161 507.805 75.3732 507.805 M73.6545 513.662 Q68.8483 513.726 65.9838 516.367 Q63.1192 518.977 63.1192 523.306 Q63.1192 528.208 65.8883 531.168 Q68.6574 534.096 73.6863 534.541 L73.6545 513.662 Z" fill="#000000" fill-rule="nonzero" fill-opacity="1"></path><path clip-path="url(#clip920)" d="M73.1452 468.561 L94.6613 468.561 L94.6613 474.417 L73.3362 474.417 Q68.2754 474.417 65.761 476.391 Q63.2465 478.364 63.2465 482.311 Q63.2465 487.053 66.2702 489.791 Q69.2939 492.528 74.5138 492.528 L94.6613 492.528 L94.6613 498.416 L59.0133 498.416 L59.0133 492.528 L64.5515 492.528 Q61.3368 490.427 59.7454 487.594 Q58.154 484.73 58.154 481.006 Q58.154 474.863 61.9734 471.712 Q65.761 468.561 73.1452 468.561 Z" fill="#000000" fill-rule="nonzero" fill-opacity="1"></path><path clip-path="url(#clip920)" d="M48.8919 451.087 L59.0133 451.087 L59.0133 439.024 L63.5648 439.024 L63.5648 451.087 L82.9166 451.087 Q87.2771 451.087 88.5184 449.909 Q89.7597 448.7 89.7597 445.04 L89.7597 439.024 L94.6613 439.024 L94.6613 445.04 Q94.6613 451.819 92.1468 454.397 Q89.6005 456.975 82.9166 456.975 L63.5648 456.975 L63.5648 461.272 L59.0133 461.272 L59.0133 456.975 L48.8919 456.975 L48.8919 451.087 Z" fill="#000000" fill-rule="nonzero" fill-opacity="1"></path><polyline clip-path="url(#clip922)" style="stroke:#cc0000; stroke-linecap:round; stroke-linejoin:round; stroke-width:4; stroke-opacity:1; fill:none" points="335.101,79.5976 645.757,709.876 839.917,877.087 1111.74,1000.25 1383.56,477.945 1655.39,421.078 1927.21,380.808 2199.04,350.366 2354.36,336.041 "></polyline>
<polyline clip-path="url(#clip922)" style="stroke:#00b200; stroke-linecap:round; stroke-linejoin:round; stroke-width:4; stroke-opacity:1; fill:none" points="335.101,79.5976 645.757,709.876 839.917,877.087 1111.74,1000.25 1383.56,1071.07 1655.39,524.255 1927.21,475.472 2199.04,440.037 2354.36,423.675 "></polyline>
<polyline clip-path="url(#clip922)" style="stroke:#0019b2; stroke-linecap:round; stroke-linejoin:round; stroke-width:4; stroke-opacity:1; fill:none" points="335.101,79.5976 645.757,709.876 839.917,877.087 1111.74,1000.25 1383.56,1071.07 1655.39,1120.64 1927.21,516.566 2199.04,478.349 2354.36,460.904 "></polyline>
<polyline clip-path="url(#clip922)" style="stroke:#660066; stroke-linecap:round; stroke-linejoin:round; stroke-width:4; stroke-opacity:1; fill:none" points="335.101,79.5976 645.757,709.876 839.917,877.087 1111.74,1000.25 1383.56,1071.07 1655.39,1120.64 1927.21,1158.05 2199.04,563.04 2354.36,542.52 "></polyline>
<polyline clip-path="url(#clip922)" style="stroke:#cc0000; stroke-linecap:round; stroke-linejoin:round; stroke-width:4; stroke-opacity:1; fill:none" stroke-dasharray="16, 10" points="335.101,79.5976 645.757,523.673 839.917,631.966 1111.74,473.308 1383.56,427.234 1655.39,392.46 1927.21,366.024 2199.04,349.88 2354.36,336.041 "></polyline>
<circle clip-path="url(#clip922)" cx="335.101" cy="79.5976" r="14.4" fill="#cc0000" fill-rule="evenodd" fill-opacity="1" stroke="#000000" stroke-opacity="1" stroke-width="2.8"></circle>
<circle clip-path="url(#clip922)" cx="645.757" cy="523.673" r="14.4" fill="#cc0000" fill-rule="evenodd" fill-opacity="1" stroke="#000000" stroke-opacity="1" stroke-width="2.8"></circle>
<circle clip-path="url(#clip922)" cx="839.917" cy="631.966" r="14.4" fill="#cc0000" fill-rule="evenodd" fill-opacity="1" stroke="#000000" stroke-opacity="1" stroke-width="2.8"></circle>
<circle clip-path="url(#clip922)" cx="1111.74" cy="473.308" r="14.4" fill="#cc0000" fill-rule="evenodd" fill-opacity="1" stroke="#000000" stroke-opacity="1" stroke-width="2.8"></circle>
<circle clip-path="url(#clip922)" cx="1383.56" cy="427.234" r="14.4" fill="#cc0000" fill-rule="evenodd" fill-opacity="1" stroke="#000000" stroke-opacity="1" stroke-width="2.8"></circle>
<circle clip-path="url(#clip922)" cx="1655.39" cy="392.46" r="14.4" fill="#cc0000" fill-rule="evenodd" fill-opacity="1" stroke="#000000" stroke-opacity="1" stroke-width="2.8"></circle>
<circle clip-path="url(#clip922)" cx="1927.21" cy="366.024" r="14.4" fill="#cc0000" fill-rule="evenodd" fill-opacity="1" stroke="#000000" stroke-opacity="1" stroke-width="2.8"></circle>
<circle clip-path="url(#clip922)" cx="2199.04" cy="349.88" r="14.4" fill="#cc0000" fill-rule="evenodd" fill-opacity="1" stroke="#000000" stroke-opacity="1" stroke-width="2.8"></circle>
<circle clip-path="url(#clip922)" cx="2354.36" cy="336.041" r="14.4" fill="#cc0000" fill-rule="evenodd" fill-opacity="1" stroke="#000000" stroke-opacity="1" stroke-width="2.8"></circle>
<polyline clip-path="url(#clip922)" style="stroke:#00b200; stroke-linecap:round; stroke-linejoin:round; stroke-width:4; stroke-opacity:1; fill:none" stroke-dasharray="16, 10" points="335.101,79.5976 645.757,530.631 839.917,840.59 1111.74,881.776 1383.56,573.419 1655.39,501.92 1927.21,462.458 2199.04,441.364 2354.36,423.675 "></polyline>
<circle clip-path="url(#clip922)" cx="335.101" cy="79.5976" r="14.4" fill="#00b200" fill-rule="evenodd" fill-opacity="1" stroke="#000000" stroke-opacity="1" stroke-width="2.8"></circle>
<circle clip-path="url(#clip922)" cx="645.757" cy="530.631" r="14.4" fill="#00b200" fill-rule="evenodd" fill-opacity="1" stroke="#000000" stroke-opacity="1" stroke-width="2.8"></circle>
<circle clip-path="url(#clip922)" cx="839.917" cy="840.59" r="14.4" fill="#00b200" fill-rule="evenodd" fill-opacity="1" stroke="#000000" stroke-opacity="1" stroke-width="2.8"></circle>
<circle clip-path="url(#clip922)" cx="1111.74" cy="881.776" r="14.4" fill="#00b200" fill-rule="evenodd" fill-opacity="1" stroke="#000000" stroke-opacity="1" stroke-width="2.8"></circle>
<circle clip-path="url(#clip922)" cx="1383.56" cy="573.419" r="14.4" fill="#00b200" fill-rule="evenodd" fill-opacity="1" stroke="#000000" stroke-opacity="1" stroke-width="2.8"></circle>
<circle clip-path="url(#clip922)" cx="1655.39" cy="501.92" r="14.4" fill="#00b200" fill-rule="evenodd" fill-opacity="1" stroke="#000000" stroke-opacity="1" stroke-width="2.8"></circle>
<circle clip-path="url(#clip922)" cx="1927.21" cy="462.458" r="14.4" fill="#00b200" fill-rule="evenodd" fill-opacity="1" stroke="#000000" stroke-opacity="1" stroke-width="2.8"></circle>
<circle clip-path="url(#clip922)" cx="2199.04" cy="441.364" r="14.4" fill="#00b200" fill-rule="evenodd" fill-opacity="1" stroke="#000000" stroke-opacity="1" stroke-width="2.8"></circle>
<circle clip-path="url(#clip922)" cx="2354.36" cy="423.675" r="14.4" fill="#00b200" fill-rule="evenodd" fill-opacity="1" stroke="#000000" stroke-opacity="1" stroke-width="2.8"></circle>
<polyline clip-path="url(#clip922)" style="stroke:#0019b2; stroke-linecap:round; stroke-linejoin:round; stroke-width:4; stroke-opacity:1; fill:none" stroke-dasharray="16, 10" points="335.101,79.5976 645.757,530.94 839.917,840.592 1111.74,952.125 1383.56,861.885 1655.39,556.862 1927.21,503.772 2199.04,478.925 2354.36,460.904 "></polyline>
<circle clip-path="url(#clip922)" cx="335.101" cy="79.5976" r="14.4" fill="#0019b2" fill-rule="evenodd" fill-opacity="1" stroke="#000000" stroke-opacity="1" stroke-width="2.8"></circle>
<circle clip-path="url(#clip922)" cx="645.757" cy="530.94" r="14.4" fill="#0019b2" fill-rule="evenodd" fill-opacity="1" stroke="#000000" stroke-opacity="1" stroke-width="2.8"></circle>
<circle clip-path="url(#clip922)" cx="839.917" cy="840.592" r="14.4" fill="#0019b2" fill-rule="evenodd" fill-opacity="1" stroke="#000000" stroke-opacity="1" stroke-width="2.8"></circle>
<circle clip-path="url(#clip922)" cx="1111.74" cy="952.125" r="14.4" fill="#0019b2" fill-rule="evenodd" fill-opacity="1" stroke="#000000" stroke-opacity="1" stroke-width="2.8"></circle>
<circle clip-path="url(#clip922)" cx="1383.56" cy="861.885" r="14.4" fill="#0019b2" fill-rule="evenodd" fill-opacity="1" stroke="#000000" stroke-opacity="1" stroke-width="2.8"></circle>
<circle clip-path="url(#clip922)" cx="1655.39" cy="556.862" r="14.4" fill="#0019b2" fill-rule="evenodd" fill-opacity="1" stroke="#000000" stroke-opacity="1" stroke-width="2.8"></circle>
<circle clip-path="url(#clip922)" cx="1927.21" cy="503.772" r="14.4" fill="#0019b2" fill-rule="evenodd" fill-opacity="1" stroke="#000000" stroke-opacity="1" stroke-width="2.8"></circle>
<circle clip-path="url(#clip922)" cx="2199.04" cy="478.925" r="14.4" fill="#0019b2" fill-rule="evenodd" fill-opacity="1" stroke="#000000" stroke-opacity="1" stroke-width="2.8"></circle>
<circle clip-path="url(#clip922)" cx="2354.36" cy="460.904" r="14.4" fill="#0019b2" fill-rule="evenodd" fill-opacity="1" stroke="#000000" stroke-opacity="1" stroke-width="2.8"></circle>
<polyline clip-path="url(#clip922)" style="stroke:#660066; stroke-linecap:round; stroke-linejoin:round; stroke-width:4; stroke-opacity:1; fill:none" stroke-dasharray="16, 10" points="335.101,79.5976 645.757,530.925 839.917,840.744 1111.74,954.937 1383.56,996.613 1655.39,970.217 1927.21,645.875 2199.04,573.583 2354.36,542.512 "></polyline>
<circle clip-path="url(#clip922)" cx="335.101" cy="79.5976" r="14.4" fill="#660066" fill-rule="evenodd" fill-opacity="1" stroke="#000000" stroke-opacity="1" stroke-width="2.8"></circle>
<circle clip-path="url(#clip922)" cx="645.757" cy="530.925" r="14.4" fill="#660066" fill-rule="evenodd" fill-opacity="1" stroke="#000000" stroke-opacity="1" stroke-width="2.8"></circle>
<circle clip-path="url(#clip922)" cx="839.917" cy="840.744" r="14.4" fill="#660066" fill-rule="evenodd" fill-opacity="1" stroke="#000000" stroke-opacity="1" stroke-width="2.8"></circle>
<circle clip-path="url(#clip922)" cx="1111.74" cy="954.937" r="14.4" fill="#660066" fill-rule="evenodd" fill-opacity="1" stroke="#000000" stroke-opacity="1" stroke-width="2.8"></circle>
<circle clip-path="url(#clip922)" cx="1383.56" cy="996.613" r="14.4" fill="#660066" fill-rule="evenodd" fill-opacity="1" stroke="#000000" stroke-opacity="1" stroke-width="2.8"></circle>
<circle clip-path="url(#clip922)" cx="1655.39" cy="970.217" r="14.4" fill="#660066" fill-rule="evenodd" fill-opacity="1" stroke="#000000" stroke-opacity="1" stroke-width="2.8"></circle>
<circle clip-path="url(#clip922)" cx="1927.21" cy="645.875" r="14.4" fill="#660066" fill-rule="evenodd" fill-opacity="1" stroke="#000000" stroke-opacity="1" stroke-width="2.8"></circle>
<circle clip-path="url(#clip922)" cx="2199.04" cy="573.583" r="14.4" fill="#660066" fill-rule="evenodd" fill-opacity="1" stroke="#000000" stroke-opacity="1" stroke-width="2.8"></circle>
<circle clip-path="url(#clip922)" cx="2354.36" cy="542.512" r="14.4" fill="#660066" fill-rule="evenodd" fill-opacity="1" stroke="#000000" stroke-opacity="1" stroke-width="2.8"></circle>
<path clip-path="url(#clip920)" d="M2510.88 551.909 L3152.76 551.909 L3152.76 85.3494 L2510.88 85.3494  Z" fill="#ffffff" fill-rule="evenodd" fill-opacity="1"></path>
<polyline clip-path="url(#clip920)" style="stroke:#000000; stroke-linecap:round; stroke-linejoin:round; stroke-width:4; stroke-opacity:1; fill:none" points="2510.88,551.909 3152.76,551.909 3152.76,85.3494 2510.88,85.3494 2510.88,551.909 "></polyline>
<polyline clip-path="url(#clip920)" style="stroke:#cc0000; stroke-linecap:round; stroke-linejoin:round; stroke-width:4; stroke-opacity:1; fill:none" points="2542.86,137.189 2734.75,137.189 "></polyline>
<path clip-path="url(#clip920)" d="M2766.73 119.909 L2795.96 119.909 L2795.96 123.845 L2783.69 123.845 L2783.69 154.469 L2778.99 154.469 L2778.99 123.845 L2766.73 123.845 L2766.73 119.909 Z" fill="#000000" fill-rule="nonzero" fill-opacity="1"></path><path clip-path="url(#clip920)" d="M2821.84 138.821 L2821.84 154.469 L2817.58 154.469 L2817.58 138.96 Q2817.58 135.28 2816.15 133.451 Q2814.71 131.622 2811.84 131.622 Q2808.39 131.622 2806.4 133.821 Q2804.41 136.02 2804.41 139.817 L2804.41 154.469 L2800.13 154.469 L2800.13 118.451 L2804.41 118.451 L2804.41 132.571 Q2805.94 130.233 2808 129.076 Q2810.08 127.919 2812.79 127.919 Q2817.26 127.919 2819.55 130.696 Q2821.84 133.451 2821.84 138.821 Z" fill="#000000" fill-rule="nonzero" fill-opacity="1"></path><path clip-path="url(#clip920)" d="M2852.51 140.442 L2852.51 142.525 L2832.93 142.525 Q2833.21 146.923 2835.57 149.238 Q2837.95 151.53 2842.19 151.53 Q2844.64 151.53 2846.93 150.928 Q2849.25 150.326 2851.52 149.122 L2851.52 153.15 Q2849.23 154.122 2846.82 154.631 Q2844.41 155.141 2841.93 155.141 Q2835.73 155.141 2832.1 151.53 Q2828.49 147.918 2828.49 141.761 Q2828.49 135.395 2831.91 131.669 Q2835.36 127.919 2841.19 127.919 Q2846.43 127.919 2849.46 131.298 Q2852.51 134.655 2852.51 140.442 M2848.25 139.192 Q2848.21 135.696 2846.29 133.613 Q2844.39 131.53 2841.24 131.53 Q2837.68 131.53 2835.52 133.544 Q2833.39 135.557 2833.07 139.215 L2848.25 139.192 Z" fill="#000000" fill-rule="nonzero" fill-opacity="1"></path><path clip-path="url(#clip920)" d="M2869.55 131.53 Q2866.12 131.53 2864.13 134.215 Q2862.14 136.877 2862.14 141.53 Q2862.14 146.182 2864.11 148.868 Q2866.1 151.53 2869.55 151.53 Q2872.95 151.53 2874.94 148.844 Q2876.93 146.159 2876.93 141.53 Q2876.93 136.923 2874.94 134.238 Q2872.95 131.53 2869.55 131.53 M2869.55 127.919 Q2875.11 127.919 2878.28 131.53 Q2881.45 135.141 2881.45 141.53 Q2881.45 147.895 2878.28 151.53 Q2875.11 155.141 2869.55 155.141 Q2863.97 155.141 2860.8 151.53 Q2857.65 147.895 2857.65 141.53 Q2857.65 135.141 2860.8 131.53 Q2863.97 127.919 2869.55 127.919 Z" fill="#000000" fill-rule="nonzero" fill-opacity="1"></path><path clip-path="url(#clip920)" d="M2903.53 132.525 Q2902.81 132.108 2901.96 131.923 Q2901.12 131.715 2900.11 131.715 Q2896.49 131.715 2894.55 134.076 Q2892.63 136.414 2892.63 140.812 L2892.63 154.469 L2888.35 154.469 L2888.35 128.544 L2892.63 128.544 L2892.63 132.571 Q2893.97 130.21 2896.12 129.076 Q2898.28 127.919 2901.36 127.919 Q2901.8 127.919 2902.33 127.988 Q2902.86 128.034 2903.51 128.15 L2903.53 132.525 Z" fill="#000000" fill-rule="nonzero" fill-opacity="1"></path><path clip-path="url(#clip920)" d="M2918.79 156.877 Q2916.98 161.506 2915.27 162.918 Q2913.55 164.33 2910.68 164.33 L2907.28 164.33 L2907.28 160.766 L2909.78 160.766 Q2911.54 160.766 2912.51 159.932 Q2913.48 159.099 2914.67 155.997 L2915.43 154.053 L2904.94 128.544 L2909.46 128.544 L2917.56 148.821 L2925.66 128.544 L2930.17 128.544 L2918.79 156.877 Z" fill="#000000" fill-rule="nonzero" fill-opacity="1"></path><path clip-path="url(#clip920)" d="M2952.54 150.534 L2960.17 150.534 L2960.17 124.169 L2951.86 125.835 L2951.86 121.576 L2960.13 119.909 L2964.8 119.909 L2964.8 150.534 L2972.44 150.534 L2972.44 154.469 L2952.54 154.469 L2952.54 150.534 Z" fill="#000000" fill-rule="nonzero" fill-opacity="1"></path><polyline clip-path="url(#clip920)" style="stroke:#00b200; stroke-linecap:round; stroke-linejoin:round; stroke-width:4; stroke-opacity:1; fill:none" points="2542.86,189.029 2734.75,189.029 "></polyline>
<path clip-path="url(#clip920)" d="M2766.73 171.749 L2795.96 171.749 L2795.96 175.685 L2783.69 175.685 L2783.69 206.309 L2778.99 206.309 L2778.99 175.685 L2766.73 175.685 L2766.73 171.749 Z" fill="#000000" fill-rule="nonzero" fill-opacity="1"></path><path clip-path="url(#clip920)" d="M2821.84 190.661 L2821.84 206.309 L2817.58 206.309 L2817.58 190.8 Q2817.58 187.12 2816.15 185.291 Q2814.71 183.462 2811.84 183.462 Q2808.39 183.462 2806.4 185.661 Q2804.41 187.86 2804.41 191.657 L2804.41 206.309 L2800.13 206.309 L2800.13 170.291 L2804.41 170.291 L2804.41 184.411 Q2805.94 182.073 2808 180.916 Q2810.08 179.759 2812.79 179.759 Q2817.26 179.759 2819.55 182.536 Q2821.84 185.291 2821.84 190.661 Z" fill="#000000" fill-rule="nonzero" fill-opacity="1"></path><path clip-path="url(#clip920)" d="M2852.51 192.282 L2852.51 194.365 L2832.93 194.365 Q2833.21 198.763 2835.57 201.078 Q2837.95 203.37 2842.19 203.37 Q2844.64 203.37 2846.93 202.768 Q2849.25 202.166 2851.52 200.962 L2851.52 204.99 Q2849.23 205.962 2846.82 206.471 Q2844.41 206.981 2841.93 206.981 Q2835.73 206.981 2832.1 203.37 Q2828.49 199.758 2828.49 193.601 Q2828.49 187.235 2831.91 183.509 Q2835.36 179.759 2841.19 179.759 Q2846.43 179.759 2849.46 183.138 Q2852.51 186.495 2852.51 192.282 M2848.25 191.032 Q2848.21 187.536 2846.29 185.453 Q2844.39 183.37 2841.24 183.37 Q2837.68 183.37 2835.52 185.384 Q2833.39 187.397 2833.07 191.055 L2848.25 191.032 Z" fill="#000000" fill-rule="nonzero" fill-opacity="1"></path><path clip-path="url(#clip920)" d="M2869.55 183.37 Q2866.12 183.37 2864.13 186.055 Q2862.14 188.717 2862.14 193.37 Q2862.14 198.022 2864.11 200.708 Q2866.1 203.37 2869.55 203.37 Q2872.95 203.37 2874.94 200.684 Q2876.93 197.999 2876.93 193.37 Q2876.93 188.763 2874.94 186.078 Q2872.95 183.37 2869.55 183.37 M2869.55 179.759 Q2875.11 179.759 2878.28 183.37 Q2881.45 186.981 2881.45 193.37 Q2881.45 199.735 2878.28 203.37 Q2875.11 206.981 2869.55 206.981 Q2863.97 206.981 2860.8 203.37 Q2857.65 199.735 2857.65 193.37 Q2857.65 186.981 2860.8 183.37 Q2863.97 179.759 2869.55 179.759 Z" fill="#000000" fill-rule="nonzero" fill-opacity="1"></path><path clip-path="url(#clip920)" d="M2903.53 184.365 Q2902.81 183.948 2901.96 183.763 Q2901.12 183.555 2900.11 183.555 Q2896.49 183.555 2894.55 185.916 Q2892.63 188.254 2892.63 192.652 L2892.63 206.309 L2888.35 206.309 L2888.35 180.384 L2892.63 180.384 L2892.63 184.411 Q2893.97 182.05 2896.12 180.916 Q2898.28 179.759 2901.36 179.759 Q2901.8 179.759 2902.33 179.828 Q2902.86 179.874 2903.51 179.99 L2903.53 184.365 Z" fill="#000000" fill-rule="nonzero" fill-opacity="1"></path><path clip-path="url(#clip920)" d="M2918.79 208.717 Q2916.98 213.346 2915.27 214.758 Q2913.55 216.17 2910.68 216.17 L2907.28 216.17 L2907.28 212.606 L2909.78 212.606 Q2911.54 212.606 2912.51 211.772 Q2913.48 210.939 2914.67 207.837 L2915.43 205.893 L2904.94 180.384 L2909.46 180.384 L2917.56 200.661 L2925.66 180.384 L2930.17 180.384 L2918.79 208.717 Z" fill="#000000" fill-rule="nonzero" fill-opacity="1"></path><path clip-path="url(#clip920)" d="M2955.75 202.374 L2972.07 202.374 L2972.07 206.309 L2950.13 206.309 L2950.13 202.374 Q2952.79 199.62 2957.37 194.99 Q2961.98 190.337 2963.16 188.995 Q2965.41 186.472 2966.29 184.735 Q2967.19 182.976 2967.19 181.286 Q2967.19 178.532 2965.24 176.796 Q2963.32 175.06 2960.22 175.06 Q2958.02 175.06 2955.57 175.823 Q2953.14 176.587 2950.36 178.138 L2950.36 173.416 Q2953.18 172.282 2955.64 171.703 Q2958.09 171.124 2960.13 171.124 Q2965.5 171.124 2968.69 173.81 Q2971.89 176.495 2971.89 180.985 Q2971.89 183.115 2971.08 185.036 Q2970.29 186.934 2968.18 189.527 Q2967.61 190.198 2964.5 193.416 Q2961.4 196.61 2955.75 202.374 Z" fill="#000000" fill-rule="nonzero" fill-opacity="1"></path><polyline clip-path="url(#clip920)" style="stroke:#0019b2; stroke-linecap:round; stroke-linejoin:round; stroke-width:4; stroke-opacity:1; fill:none" points="2542.86,240.869 2734.75,240.869 "></polyline>
<path clip-path="url(#clip920)" d="M2766.73 223.589 L2795.96 223.589 L2795.96 227.525 L2783.69 227.525 L2783.69 258.149 L2778.99 258.149 L2778.99 227.525 L2766.73 227.525 L2766.73 223.589 Z" fill="#000000" fill-rule="nonzero" fill-opacity="1"></path><path clip-path="url(#clip920)" d="M2821.84 242.501 L2821.84 258.149 L2817.58 258.149 L2817.58 242.64 Q2817.58 238.96 2816.15 237.131 Q2814.71 235.302 2811.84 235.302 Q2808.39 235.302 2806.4 237.501 Q2804.41 239.7 2804.41 243.497 L2804.41 258.149 L2800.13 258.149 L2800.13 222.131 L2804.41 222.131 L2804.41 236.251 Q2805.94 233.913 2808 232.756 Q2810.08 231.599 2812.79 231.599 Q2817.26 231.599 2819.55 234.376 Q2821.84 237.131 2821.84 242.501 Z" fill="#000000" fill-rule="nonzero" fill-opacity="1"></path><path clip-path="url(#clip920)" d="M2852.51 244.122 L2852.51 246.205 L2832.93 246.205 Q2833.21 250.603 2835.57 252.918 Q2837.95 255.21 2842.19 255.21 Q2844.64 255.21 2846.93 254.608 Q2849.25 254.006 2851.52 252.802 L2851.52 256.83 Q2849.23 257.802 2846.82 258.311 Q2844.41 258.821 2841.93 258.821 Q2835.73 258.821 2832.1 255.21 Q2828.49 251.598 2828.49 245.441 Q2828.49 239.075 2831.91 235.349 Q2835.36 231.599 2841.19 231.599 Q2846.43 231.599 2849.46 234.978 Q2852.51 238.335 2852.51 244.122 M2848.25 242.872 Q2848.21 239.376 2846.29 237.293 Q2844.39 235.21 2841.24 235.21 Q2837.68 235.21 2835.52 237.224 Q2833.39 239.237 2833.07 242.895 L2848.25 242.872 Z" fill="#000000" fill-rule="nonzero" fill-opacity="1"></path><path clip-path="url(#clip920)" d="M2869.55 235.21 Q2866.12 235.21 2864.13 237.895 Q2862.14 240.557 2862.14 245.21 Q2862.14 249.862 2864.11 252.548 Q2866.1 255.21 2869.55 255.21 Q2872.95 255.21 2874.94 252.524 Q2876.93 249.839 2876.93 245.21 Q2876.93 240.603 2874.94 237.918 Q2872.95 235.21 2869.55 235.21 M2869.55 231.599 Q2875.11 231.599 2878.28 235.21 Q2881.45 238.821 2881.45 245.21 Q2881.45 251.575 2878.28 255.21 Q2875.11 258.821 2869.55 258.821 Q2863.97 258.821 2860.8 255.21 Q2857.65 251.575 2857.65 245.21 Q2857.65 238.821 2860.8 235.21 Q2863.97 231.599 2869.55 231.599 Z" fill="#000000" fill-rule="nonzero" fill-opacity="1"></path><path clip-path="url(#clip920)" d="M2903.53 236.205 Q2902.81 235.788 2901.96 235.603 Q2901.12 235.395 2900.11 235.395 Q2896.49 235.395 2894.55 237.756 Q2892.63 240.094 2892.63 244.492 L2892.63 258.149 L2888.35 258.149 L2888.35 232.224 L2892.63 232.224 L2892.63 236.251 Q2893.97 233.89 2896.12 232.756 Q2898.28 231.599 2901.36 231.599 Q2901.8 231.599 2902.33 231.668 Q2902.86 231.714 2903.51 231.83 L2903.53 236.205 Z" fill="#000000" fill-rule="nonzero" fill-opacity="1"></path><path clip-path="url(#clip920)" d="M2918.79 260.557 Q2916.98 265.186 2915.27 266.598 Q2913.55 268.01 2910.68 268.01 L2907.28 268.01 L2907.28 264.446 L2909.78 264.446 Q2911.54 264.446 2912.51 263.612 Q2913.48 262.779 2914.67 259.677 L2915.43 257.733 L2904.94 232.224 L2909.46 232.224 L2917.56 252.501 L2925.66 232.224 L2930.17 232.224 L2918.79 260.557 Z" fill="#000000" fill-rule="nonzero" fill-opacity="1"></path><path clip-path="url(#clip920)" d="M2965.89 239.515 Q2969.25 240.233 2971.12 242.501 Q2973.02 244.77 2973.02 248.103 Q2973.02 253.219 2969.5 256.02 Q2965.98 258.821 2959.5 258.821 Q2957.33 258.821 2955.01 258.381 Q2952.72 257.964 2950.27 257.108 L2950.27 252.594 Q2952.21 253.728 2954.53 254.307 Q2956.84 254.886 2959.36 254.886 Q2963.76 254.886 2966.05 253.149 Q2968.37 251.413 2968.37 248.103 Q2968.37 245.048 2966.22 243.335 Q2964.09 241.599 2960.27 241.599 L2956.24 241.599 L2956.24 237.756 L2960.45 237.756 Q2963.9 237.756 2965.73 236.39 Q2967.56 235.001 2967.56 232.409 Q2967.56 229.747 2965.66 228.335 Q2963.79 226.9 2960.27 226.9 Q2958.35 226.9 2956.15 227.316 Q2953.95 227.733 2951.31 228.613 L2951.31 224.446 Q2953.97 223.705 2956.29 223.335 Q2958.62 222.964 2960.68 222.964 Q2966.01 222.964 2969.11 225.395 Q2972.21 227.802 2972.21 231.923 Q2972.21 234.793 2970.57 236.784 Q2968.92 238.751 2965.89 239.515 Z" fill="#000000" fill-rule="nonzero" fill-opacity="1"></path><polyline clip-path="url(#clip920)" style="stroke:#660066; stroke-linecap:round; stroke-linejoin:round; stroke-width:4; stroke-opacity:1; fill:none" points="2542.86,292.709 2734.75,292.709 "></polyline>
<path clip-path="url(#clip920)" d="M2766.73 275.429 L2795.96 275.429 L2795.96 279.365 L2783.69 279.365 L2783.69 309.989 L2778.99 309.989 L2778.99 279.365 L2766.73 279.365 L2766.73 275.429 Z" fill="#000000" fill-rule="nonzero" fill-opacity="1"></path><path clip-path="url(#clip920)" d="M2821.84 294.341 L2821.84 309.989 L2817.58 309.989 L2817.58 294.48 Q2817.58 290.8 2816.15 288.971 Q2814.71 287.142 2811.84 287.142 Q2808.39 287.142 2806.4 289.341 Q2804.41 291.54 2804.41 295.337 L2804.41 309.989 L2800.13 309.989 L2800.13 273.971 L2804.41 273.971 L2804.41 288.091 Q2805.94 285.753 2808 284.596 Q2810.08 283.439 2812.79 283.439 Q2817.26 283.439 2819.55 286.216 Q2821.84 288.971 2821.84 294.341 Z" fill="#000000" fill-rule="nonzero" fill-opacity="1"></path><path clip-path="url(#clip920)" d="M2852.51 295.962 L2852.51 298.045 L2832.93 298.045 Q2833.21 302.443 2835.57 304.758 Q2837.95 307.05 2842.19 307.05 Q2844.64 307.05 2846.93 306.448 Q2849.25 305.846 2851.52 304.642 L2851.52 308.67 Q2849.23 309.642 2846.82 310.151 Q2844.41 310.661 2841.93 310.661 Q2835.73 310.661 2832.1 307.05 Q2828.49 303.438 2828.49 297.281 Q2828.49 290.915 2831.91 287.189 Q2835.36 283.439 2841.19 283.439 Q2846.43 283.439 2849.46 286.818 Q2852.51 290.175 2852.51 295.962 M2848.25 294.712 Q2848.21 291.216 2846.29 289.133 Q2844.39 287.05 2841.24 287.05 Q2837.68 287.05 2835.52 289.064 Q2833.39 291.077 2833.07 294.735 L2848.25 294.712 Z" fill="#000000" fill-rule="nonzero" fill-opacity="1"></path><path clip-path="url(#clip920)" d="M2869.55 287.05 Q2866.12 287.05 2864.13 289.735 Q2862.14 292.397 2862.14 297.05 Q2862.14 301.702 2864.11 304.388 Q2866.1 307.05 2869.55 307.05 Q2872.95 307.05 2874.94 304.364 Q2876.93 301.679 2876.93 297.05 Q2876.93 292.443 2874.94 289.758 Q2872.95 287.05 2869.55 287.05 M2869.55 283.439 Q2875.11 283.439 2878.28 287.05 Q2881.45 290.661 2881.45 297.05 Q2881.45 303.415 2878.28 307.05 Q2875.11 310.661 2869.55 310.661 Q2863.97 310.661 2860.8 307.05 Q2857.65 303.415 2857.65 297.05 Q2857.65 290.661 2860.8 287.05 Q2863.97 283.439 2869.55 283.439 Z" fill="#000000" fill-rule="nonzero" fill-opacity="1"></path><path clip-path="url(#clip920)" d="M2903.53 288.045 Q2902.81 287.628 2901.96 287.443 Q2901.12 287.235 2900.11 287.235 Q2896.49 287.235 2894.55 289.596 Q2892.63 291.934 2892.63 296.332 L2892.63 309.989 L2888.35 309.989 L2888.35 284.064 L2892.63 284.064 L2892.63 288.091 Q2893.97 285.73 2896.12 284.596 Q2898.28 283.439 2901.36 283.439 Q2901.8 283.439 2902.33 283.508 Q2902.86 283.554 2903.51 283.67 L2903.53 288.045 Z" fill="#000000" fill-rule="nonzero" fill-opacity="1"></path><path clip-path="url(#clip920)" d="M2918.79 312.397 Q2916.98 317.026 2915.27 318.438 Q2913.55 319.85 2910.68 319.85 L2907.28 319.85 L2907.28 316.286 L2909.78 316.286 Q2911.54 316.286 2912.51 315.452 Q2913.48 314.619 2914.67 311.517 L2915.43 309.573 L2904.94 284.064 L2909.46 284.064 L2917.56 304.341 L2925.66 284.064 L2930.17 284.064 L2918.79 312.397 Z" fill="#000000" fill-rule="nonzero" fill-opacity="1"></path><path clip-path="url(#clip920)" d="M2964.57 279.503 L2952.77 297.952 L2964.57 297.952 L2964.57 279.503 M2963.35 275.429 L2969.23 275.429 L2969.23 297.952 L2974.16 297.952 L2974.16 301.841 L2969.23 301.841 L2969.23 309.989 L2964.57 309.989 L2964.57 301.841 L2948.97 301.841 L2948.97 297.327 L2963.35 275.429 Z" fill="#000000" fill-rule="nonzero" fill-opacity="1"></path><polyline clip-path="url(#clip920)" style="stroke:#cc0000; stroke-linecap:round; stroke-linejoin:round; stroke-width:4; stroke-opacity:1; fill:none" stroke-dasharray="16, 10" points="2542.86,344.549 2734.75,344.549 "></polyline>
<circle clip-path="url(#clip920)" cx="2638.81" cy="344.549" r="20.48" fill="#cc0000" fill-rule="evenodd" fill-opacity="1" stroke="#000000" stroke-opacity="1" stroke-width="3.98222"></circle>
<path clip-path="url(#clip920)" d="M2766.73 327.269 L2788.58 327.269 L2788.58 331.205 L2771.4 331.205 L2771.4 341.436 L2787.86 341.436 L2787.86 345.371 L2771.4 345.371 L2771.4 357.894 L2788.99 357.894 L2788.99 361.829 L2766.73 361.829 L2766.73 327.269 Z" fill="#000000" fill-rule="nonzero" fill-opacity="1"></path><path clip-path="url(#clip920)" d="M2818.05 335.904 L2808.67 348.519 L2818.53 361.829 L2813.51 361.829 L2805.96 351.644 L2798.42 361.829 L2793.39 361.829 L2803.46 348.265 L2794.25 335.904 L2799.27 335.904 L2806.15 345.14 L2813.02 335.904 L2818.05 335.904 Z" fill="#000000" fill-rule="nonzero" fill-opacity="1"></path><path clip-path="url(#clip920)" d="M2828.67 357.941 L2828.67 371.69 L2824.39 371.69 L2824.39 335.904 L2828.67 335.904 L2828.67 339.839 Q2830.01 337.524 2832.05 336.413 Q2834.11 335.279 2836.96 335.279 Q2841.68 335.279 2844.62 339.029 Q2847.58 342.779 2847.58 348.89 Q2847.58 355.001 2844.62 358.751 Q2841.68 362.501 2836.96 362.501 Q2834.11 362.501 2832.05 361.39 Q2830.01 360.255 2828.67 357.941 M2843.16 348.89 Q2843.16 344.191 2841.22 341.529 Q2839.3 338.843 2835.92 338.843 Q2832.54 338.843 2830.59 341.529 Q2828.67 344.191 2828.67 348.89 Q2828.67 353.589 2830.59 356.274 Q2832.54 358.936 2835.92 358.936 Q2839.3 358.936 2841.22 356.274 Q2843.16 353.589 2843.16 348.89 Z" fill="#000000" fill-rule="nonzero" fill-opacity="1"></path><path clip-path="url(#clip920)" d="M2876.82 347.802 L2876.82 349.885 L2857.24 349.885 Q2857.51 354.283 2859.87 356.598 Q2862.26 358.89 2866.49 358.89 Q2868.95 358.89 2871.24 358.288 Q2873.55 357.686 2875.82 356.482 L2875.82 360.51 Q2873.53 361.482 2871.12 361.991 Q2868.72 362.501 2866.24 362.501 Q2860.04 362.501 2856.4 358.89 Q2852.79 355.278 2852.79 349.121 Q2852.79 342.755 2856.22 339.029 Q2859.67 335.279 2865.5 335.279 Q2870.73 335.279 2873.76 338.658 Q2876.82 342.015 2876.82 347.802 M2872.56 346.552 Q2872.51 343.056 2870.59 340.973 Q2868.69 338.89 2865.55 338.89 Q2861.98 338.89 2859.83 340.904 Q2857.7 342.917 2857.37 346.575 L2872.56 346.552 Z" fill="#000000" fill-rule="nonzero" fill-opacity="1"></path><path clip-path="url(#clip920)" d="M2898.83 339.885 Q2898.11 339.468 2897.26 339.283 Q2896.42 339.075 2895.41 339.075 Q2891.8 339.075 2889.85 341.436 Q2887.93 343.774 2887.93 348.172 L2887.93 361.829 L2883.65 361.829 L2883.65 335.904 L2887.93 335.904 L2887.93 339.931 Q2889.27 337.57 2891.42 336.436 Q2893.58 335.279 2896.66 335.279 Q2897.1 335.279 2897.63 335.348 Q2898.16 335.394 2898.81 335.51 L2898.83 339.885 Z" fill="#000000" fill-rule="nonzero" fill-opacity="1"></path><path clip-path="url(#clip920)" d="M2903.3 335.904 L2907.56 335.904 L2907.56 361.829 L2903.3 361.829 L2903.3 335.904 M2903.3 325.811 L2907.56 325.811 L2907.56 331.205 L2903.3 331.205 L2903.3 325.811 Z" fill="#000000" fill-rule="nonzero" fill-opacity="1"></path><path clip-path="url(#clip920)" d="M2936.66 340.88 Q2938.25 338.01 2940.48 336.644 Q2942.7 335.279 2945.71 335.279 Q2949.76 335.279 2951.96 338.126 Q2954.16 340.95 2954.16 346.181 L2954.16 361.829 L2949.87 361.829 L2949.87 346.32 Q2949.87 342.593 2948.55 340.788 Q2947.23 338.982 2944.53 338.982 Q2941.22 338.982 2939.3 341.181 Q2937.37 343.38 2937.37 347.177 L2937.37 361.829 L2933.09 361.829 L2933.09 346.32 Q2933.09 342.57 2931.77 340.788 Q2930.45 338.982 2927.7 338.982 Q2924.43 338.982 2922.51 341.204 Q2920.59 343.404 2920.59 347.177 L2920.59 361.829 L2916.31 361.829 L2916.31 335.904 L2920.59 335.904 L2920.59 339.931 Q2922.05 337.547 2924.09 336.413 Q2926.12 335.279 2928.92 335.279 Q2931.75 335.279 2933.72 336.714 Q2935.71 338.149 2936.66 340.88 Z" fill="#000000" fill-rule="nonzero" fill-opacity="1"></path><path clip-path="url(#clip920)" d="M2984.83 347.802 L2984.83 349.885 L2965.24 349.885 Q2965.52 354.283 2967.88 356.598 Q2970.27 358.89 2974.5 358.89 Q2976.96 358.89 2979.25 358.288 Q2981.56 357.686 2983.83 356.482 L2983.83 360.51 Q2981.54 361.482 2979.13 361.991 Q2976.73 362.501 2974.25 362.501 Q2968.04 362.501 2964.41 358.89 Q2960.8 355.278 2960.8 349.121 Q2960.8 342.755 2964.23 339.029 Q2967.67 335.279 2973.51 335.279 Q2978.74 335.279 2981.77 338.658 Q2984.83 342.015 2984.83 347.802 M2980.57 346.552 Q2980.52 343.056 2978.6 340.973 Q2976.7 338.89 2973.55 338.89 Q2969.99 338.89 2967.84 340.904 Q2965.71 342.917 2965.38 346.575 L2980.57 346.552 Z" fill="#000000" fill-rule="nonzero" fill-opacity="1"></path><path clip-path="url(#clip920)" d="M3013.37 346.181 L3013.37 361.829 L3009.11 361.829 L3009.11 346.32 Q3009.11 342.64 3007.67 340.811 Q3006.24 338.982 3003.37 338.982 Q2999.92 338.982 2997.93 341.181 Q2995.94 343.38 2995.94 347.177 L2995.94 361.829 L2991.66 361.829 L2991.66 335.904 L2995.94 335.904 L2995.94 339.931 Q2997.47 337.593 2999.53 336.436 Q3001.61 335.279 3004.32 335.279 Q3008.79 335.279 3011.08 338.056 Q3013.37 340.811 3013.37 346.181 Z" fill="#000000" fill-rule="nonzero" fill-opacity="1"></path><path clip-path="url(#clip920)" d="M3026.08 328.543 L3026.08 335.904 L3034.85 335.904 L3034.85 339.214 L3026.08 339.214 L3026.08 353.288 Q3026.08 356.459 3026.93 357.362 Q3027.81 358.265 3030.48 358.265 L3034.85 358.265 L3034.85 361.829 L3030.48 361.829 Q3025.54 361.829 3023.67 360.001 Q3021.79 358.149 3021.79 353.288 L3021.79 339.214 L3018.67 339.214 L3018.67 335.904 L3021.79 335.904 L3021.79 328.543 L3026.08 328.543 Z" fill="#000000" fill-rule="nonzero" fill-opacity="1"></path><path clip-path="url(#clip920)" d="M3052.23 348.797 Q3047.07 348.797 3045.08 349.978 Q3043.09 351.158 3043.09 354.005 Q3043.09 356.274 3044.57 357.616 Q3046.08 358.936 3048.65 358.936 Q3052.19 358.936 3054.32 356.436 Q3056.47 353.913 3056.47 349.746 L3056.47 348.797 L3052.23 348.797 M3060.73 347.038 L3060.73 361.829 L3056.47 361.829 L3056.47 357.894 Q3055.01 360.255 3052.84 361.39 Q3050.66 362.501 3047.51 362.501 Q3043.53 362.501 3041.17 360.278 Q3038.83 358.033 3038.83 354.283 Q3038.83 349.908 3041.75 347.686 Q3044.69 345.464 3050.5 345.464 L3056.47 345.464 L3056.47 345.047 Q3056.47 342.107 3054.53 340.51 Q3052.6 338.89 3049.11 338.89 Q3046.89 338.89 3044.78 339.422 Q3042.67 339.954 3040.73 341.019 L3040.73 337.084 Q3043.07 336.181 3045.27 335.742 Q3047.47 335.279 3049.55 335.279 Q3055.17 335.279 3057.95 338.195 Q3060.73 341.112 3060.73 347.038 Z" fill="#000000" fill-rule="nonzero" fill-opacity="1"></path><path clip-path="url(#clip920)" d="M3069.5 325.811 L3073.76 325.811 L3073.76 361.829 L3069.5 361.829 L3069.5 325.811 Z" fill="#000000" fill-rule="nonzero" fill-opacity="1"></path><path clip-path="url(#clip920)" d="M3099.16 357.894 L3106.79 357.894 L3106.79 331.529 L3098.48 333.195 L3098.48 328.936 L3106.75 327.269 L3111.42 327.269 L3111.42 357.894 L3119.06 357.894 L3119.06 361.829 L3099.16 361.829 L3099.16 357.894 Z" fill="#000000" fill-rule="nonzero" fill-opacity="1"></path><polyline clip-path="url(#clip920)" style="stroke:#00b200; stroke-linecap:round; stroke-linejoin:round; stroke-width:4; stroke-opacity:1; fill:none" stroke-dasharray="16, 10" points="2542.86,396.389 2734.75,396.389 "></polyline>
<circle clip-path="url(#clip920)" cx="2638.81" cy="396.389" r="20.48" fill="#00b200" fill-rule="evenodd" fill-opacity="1" stroke="#000000" stroke-opacity="1" stroke-width="3.98222"></circle>
<path clip-path="url(#clip920)" d="M2766.73 379.109 L2788.58 379.109 L2788.58 383.045 L2771.4 383.045 L2771.4 393.276 L2787.86 393.276 L2787.86 397.211 L2771.4 397.211 L2771.4 409.734 L2788.99 409.734 L2788.99 413.669 L2766.73 413.669 L2766.73 379.109 Z" fill="#000000" fill-rule="nonzero" fill-opacity="1"></path><path clip-path="url(#clip920)" d="M2818.05 387.744 L2808.67 400.359 L2818.53 413.669 L2813.51 413.669 L2805.96 403.484 L2798.42 413.669 L2793.39 413.669 L2803.46 400.105 L2794.25 387.744 L2799.27 387.744 L2806.15 396.98 L2813.02 387.744 L2818.05 387.744 Z" fill="#000000" fill-rule="nonzero" fill-opacity="1"></path><path clip-path="url(#clip920)" d="M2828.67 409.781 L2828.67 423.53 L2824.39 423.53 L2824.39 387.744 L2828.67 387.744 L2828.67 391.679 Q2830.01 389.364 2832.05 388.253 Q2834.11 387.119 2836.96 387.119 Q2841.68 387.119 2844.62 390.869 Q2847.58 394.619 2847.58 400.73 Q2847.58 406.841 2844.62 410.591 Q2841.68 414.341 2836.96 414.341 Q2834.11 414.341 2832.05 413.23 Q2830.01 412.095 2828.67 409.781 M2843.16 400.73 Q2843.16 396.031 2841.22 393.369 Q2839.3 390.683 2835.92 390.683 Q2832.54 390.683 2830.59 393.369 Q2828.67 396.031 2828.67 400.73 Q2828.67 405.429 2830.59 408.114 Q2832.54 410.776 2835.92 410.776 Q2839.3 410.776 2841.22 408.114 Q2843.16 405.429 2843.16 400.73 Z" fill="#000000" fill-rule="nonzero" fill-opacity="1"></path><path clip-path="url(#clip920)" d="M2876.82 399.642 L2876.82 401.725 L2857.24 401.725 Q2857.51 406.123 2859.87 408.438 Q2862.26 410.73 2866.49 410.73 Q2868.95 410.73 2871.24 410.128 Q2873.55 409.526 2875.82 408.322 L2875.82 412.35 Q2873.53 413.322 2871.12 413.831 Q2868.72 414.341 2866.24 414.341 Q2860.04 414.341 2856.4 410.73 Q2852.79 407.118 2852.79 400.961 Q2852.79 394.595 2856.22 390.869 Q2859.67 387.119 2865.5 387.119 Q2870.73 387.119 2873.76 390.498 Q2876.82 393.855 2876.82 399.642 M2872.56 398.392 Q2872.51 394.896 2870.59 392.813 Q2868.69 390.73 2865.55 390.73 Q2861.98 390.73 2859.83 392.744 Q2857.7 394.757 2857.37 398.415 L2872.56 398.392 Z" fill="#000000" fill-rule="nonzero" fill-opacity="1"></path><path clip-path="url(#clip920)" d="M2898.83 391.725 Q2898.11 391.308 2897.26 391.123 Q2896.42 390.915 2895.41 390.915 Q2891.8 390.915 2889.85 393.276 Q2887.93 395.614 2887.93 400.012 L2887.93 413.669 L2883.65 413.669 L2883.65 387.744 L2887.93 387.744 L2887.93 391.771 Q2889.27 389.41 2891.42 388.276 Q2893.58 387.119 2896.66 387.119 Q2897.1 387.119 2897.63 387.188 Q2898.16 387.234 2898.81 387.35 L2898.83 391.725 Z" fill="#000000" fill-rule="nonzero" fill-opacity="1"></path><path clip-path="url(#clip920)" d="M2903.3 387.744 L2907.56 387.744 L2907.56 413.669 L2903.3 413.669 L2903.3 387.744 M2903.3 377.651 L2907.56 377.651 L2907.56 383.045 L2903.3 383.045 L2903.3 377.651 Z" fill="#000000" fill-rule="nonzero" fill-opacity="1"></path><path clip-path="url(#clip920)" d="M2936.66 392.72 Q2938.25 389.85 2940.48 388.484 Q2942.7 387.119 2945.71 387.119 Q2949.76 387.119 2951.96 389.966 Q2954.16 392.79 2954.16 398.021 L2954.16 413.669 L2949.87 413.669 L2949.87 398.16 Q2949.87 394.433 2948.55 392.628 Q2947.23 390.822 2944.53 390.822 Q2941.22 390.822 2939.3 393.021 Q2937.37 395.22 2937.37 399.017 L2937.37 413.669 L2933.09 413.669 L2933.09 398.16 Q2933.09 394.41 2931.77 392.628 Q2930.45 390.822 2927.7 390.822 Q2924.43 390.822 2922.51 393.044 Q2920.59 395.244 2920.59 399.017 L2920.59 413.669 L2916.31 413.669 L2916.31 387.744 L2920.59 387.744 L2920.59 391.771 Q2922.05 389.387 2924.09 388.253 Q2926.12 387.119 2928.92 387.119 Q2931.75 387.119 2933.72 388.554 Q2935.71 389.989 2936.66 392.72 Z" fill="#000000" fill-rule="nonzero" fill-opacity="1"></path><path clip-path="url(#clip920)" d="M2984.83 399.642 L2984.83 401.725 L2965.24 401.725 Q2965.52 406.123 2967.88 408.438 Q2970.27 410.73 2974.5 410.73 Q2976.96 410.73 2979.25 410.128 Q2981.56 409.526 2983.83 408.322 L2983.83 412.35 Q2981.54 413.322 2979.13 413.831 Q2976.73 414.341 2974.25 414.341 Q2968.04 414.341 2964.41 410.73 Q2960.8 407.118 2960.8 400.961 Q2960.8 394.595 2964.23 390.869 Q2967.67 387.119 2973.51 387.119 Q2978.74 387.119 2981.77 390.498 Q2984.83 393.855 2984.83 399.642 M2980.57 398.392 Q2980.52 394.896 2978.6 392.813 Q2976.7 390.73 2973.55 390.73 Q2969.99 390.73 2967.84 392.744 Q2965.71 394.757 2965.38 398.415 L2980.57 398.392 Z" fill="#000000" fill-rule="nonzero" fill-opacity="1"></path><path clip-path="url(#clip920)" d="M3013.37 398.021 L3013.37 413.669 L3009.11 413.669 L3009.11 398.16 Q3009.11 394.48 3007.67 392.651 Q3006.24 390.822 3003.37 390.822 Q2999.92 390.822 2997.93 393.021 Q2995.94 395.22 2995.94 399.017 L2995.94 413.669 L2991.66 413.669 L2991.66 387.744 L2995.94 387.744 L2995.94 391.771 Q2997.47 389.433 2999.53 388.276 Q3001.61 387.119 3004.32 387.119 Q3008.79 387.119 3011.08 389.896 Q3013.37 392.651 3013.37 398.021 Z" fill="#000000" fill-rule="nonzero" fill-opacity="1"></path><path clip-path="url(#clip920)" d="M3026.08 380.383 L3026.08 387.744 L3034.85 387.744 L3034.85 391.054 L3026.08 391.054 L3026.08 405.128 Q3026.08 408.299 3026.93 409.202 Q3027.81 410.105 3030.48 410.105 L3034.85 410.105 L3034.85 413.669 L3030.48 413.669 Q3025.54 413.669 3023.67 411.841 Q3021.79 409.989 3021.79 405.128 L3021.79 391.054 L3018.67 391.054 L3018.67 387.744 L3021.79 387.744 L3021.79 380.383 L3026.08 380.383 Z" fill="#000000" fill-rule="nonzero" fill-opacity="1"></path><path clip-path="url(#clip920)" d="M3052.23 400.637 Q3047.07 400.637 3045.08 401.818 Q3043.09 402.998 3043.09 405.845 Q3043.09 408.114 3044.57 409.456 Q3046.08 410.776 3048.65 410.776 Q3052.19 410.776 3054.32 408.276 Q3056.47 405.753 3056.47 401.586 L3056.47 400.637 L3052.23 400.637 M3060.73 398.878 L3060.73 413.669 L3056.47 413.669 L3056.47 409.734 Q3055.01 412.095 3052.84 413.23 Q3050.66 414.341 3047.51 414.341 Q3043.53 414.341 3041.17 412.118 Q3038.83 409.873 3038.83 406.123 Q3038.83 401.748 3041.75 399.526 Q3044.69 397.304 3050.5 397.304 L3056.47 397.304 L3056.47 396.887 Q3056.47 393.947 3054.53 392.35 Q3052.6 390.73 3049.11 390.73 Q3046.89 390.73 3044.78 391.262 Q3042.67 391.794 3040.73 392.859 L3040.73 388.924 Q3043.07 388.021 3045.27 387.582 Q3047.47 387.119 3049.55 387.119 Q3055.17 387.119 3057.95 390.035 Q3060.73 392.952 3060.73 398.878 Z" fill="#000000" fill-rule="nonzero" fill-opacity="1"></path><path clip-path="url(#clip920)" d="M3069.5 377.651 L3073.76 377.651 L3073.76 413.669 L3069.5 413.669 L3069.5 377.651 Z" fill="#000000" fill-rule="nonzero" fill-opacity="1"></path><path clip-path="url(#clip920)" d="M3102.37 409.734 L3118.69 409.734 L3118.69 413.669 L3096.75 413.669 L3096.75 409.734 Q3099.41 406.98 3103.99 402.35 Q3108.6 397.697 3109.78 396.355 Q3112.03 393.832 3112.91 392.095 Q3113.81 390.336 3113.81 388.646 Q3113.81 385.892 3111.86 384.156 Q3109.94 382.42 3106.84 382.42 Q3104.64 382.42 3102.19 383.183 Q3099.76 383.947 3096.98 385.498 L3096.98 380.776 Q3099.8 379.642 3102.26 379.063 Q3104.71 378.484 3106.75 378.484 Q3112.12 378.484 3115.31 381.17 Q3118.51 383.855 3118.51 388.345 Q3118.51 390.475 3117.7 392.396 Q3116.91 394.294 3114.8 396.887 Q3114.22 397.558 3111.12 400.776 Q3108.02 403.97 3102.37 409.734 Z" fill="#000000" fill-rule="nonzero" fill-opacity="1"></path><polyline clip-path="url(#clip920)" style="stroke:#0019b2; stroke-linecap:round; stroke-linejoin:round; stroke-width:4; stroke-opacity:1; fill:none" stroke-dasharray="16, 10" points="2542.86,448.229 2734.75,448.229 "></polyline>
<circle clip-path="url(#clip920)" cx="2638.81" cy="448.229" r="20.48" fill="#0019b2" fill-rule="evenodd" fill-opacity="1" stroke="#000000" stroke-opacity="1" stroke-width="3.98222"></circle>
<path clip-path="url(#clip920)" d="M2766.73 430.949 L2788.58 430.949 L2788.58 434.885 L2771.4 434.885 L2771.4 445.116 L2787.86 445.116 L2787.86 449.051 L2771.4 449.051 L2771.4 461.574 L2788.99 461.574 L2788.99 465.509 L2766.73 465.509 L2766.73 430.949 Z" fill="#000000" fill-rule="nonzero" fill-opacity="1"></path><path clip-path="url(#clip920)" d="M2818.05 439.584 L2808.67 452.199 L2818.53 465.509 L2813.51 465.509 L2805.96 455.324 L2798.42 465.509 L2793.39 465.509 L2803.46 451.945 L2794.25 439.584 L2799.27 439.584 L2806.15 448.82 L2813.02 439.584 L2818.05 439.584 Z" fill="#000000" fill-rule="nonzero" fill-opacity="1"></path><path clip-path="url(#clip920)" d="M2828.67 461.621 L2828.67 475.37 L2824.39 475.37 L2824.39 439.584 L2828.67 439.584 L2828.67 443.519 Q2830.01 441.204 2832.05 440.093 Q2834.11 438.959 2836.96 438.959 Q2841.68 438.959 2844.62 442.709 Q2847.58 446.459 2847.58 452.57 Q2847.58 458.681 2844.62 462.431 Q2841.68 466.181 2836.96 466.181 Q2834.11 466.181 2832.05 465.07 Q2830.01 463.935 2828.67 461.621 M2843.16 452.57 Q2843.16 447.871 2841.22 445.209 Q2839.3 442.523 2835.92 442.523 Q2832.54 442.523 2830.59 445.209 Q2828.67 447.871 2828.67 452.57 Q2828.67 457.269 2830.59 459.954 Q2832.54 462.616 2835.92 462.616 Q2839.3 462.616 2841.22 459.954 Q2843.16 457.269 2843.16 452.57 Z" fill="#000000" fill-rule="nonzero" fill-opacity="1"></path><path clip-path="url(#clip920)" d="M2876.82 451.482 L2876.82 453.565 L2857.24 453.565 Q2857.51 457.963 2859.87 460.278 Q2862.26 462.57 2866.49 462.57 Q2868.95 462.57 2871.24 461.968 Q2873.55 461.366 2875.82 460.162 L2875.82 464.19 Q2873.53 465.162 2871.12 465.671 Q2868.72 466.181 2866.24 466.181 Q2860.04 466.181 2856.4 462.57 Q2852.79 458.958 2852.79 452.801 Q2852.79 446.435 2856.22 442.709 Q2859.67 438.959 2865.5 438.959 Q2870.73 438.959 2873.76 442.338 Q2876.82 445.695 2876.82 451.482 M2872.56 450.232 Q2872.51 446.736 2870.59 444.653 Q2868.69 442.57 2865.55 442.57 Q2861.98 442.57 2859.83 444.584 Q2857.7 446.597 2857.37 450.255 L2872.56 450.232 Z" fill="#000000" fill-rule="nonzero" fill-opacity="1"></path><path clip-path="url(#clip920)" d="M2898.83 443.565 Q2898.11 443.148 2897.26 442.963 Q2896.42 442.755 2895.41 442.755 Q2891.8 442.755 2889.85 445.116 Q2887.93 447.454 2887.93 451.852 L2887.93 465.509 L2883.65 465.509 L2883.65 439.584 L2887.93 439.584 L2887.93 443.611 Q2889.27 441.25 2891.42 440.116 Q2893.58 438.959 2896.66 438.959 Q2897.1 438.959 2897.63 439.028 Q2898.16 439.074 2898.81 439.19 L2898.83 443.565 Z" fill="#000000" fill-rule="nonzero" fill-opacity="1"></path><path clip-path="url(#clip920)" d="M2903.3 439.584 L2907.56 439.584 L2907.56 465.509 L2903.3 465.509 L2903.3 439.584 M2903.3 429.491 L2907.56 429.491 L2907.56 434.885 L2903.3 434.885 L2903.3 429.491 Z" fill="#000000" fill-rule="nonzero" fill-opacity="1"></path><path clip-path="url(#clip920)" d="M2936.66 444.56 Q2938.25 441.69 2940.48 440.324 Q2942.7 438.959 2945.71 438.959 Q2949.76 438.959 2951.96 441.806 Q2954.16 444.63 2954.16 449.861 L2954.16 465.509 L2949.87 465.509 L2949.87 450 Q2949.87 446.273 2948.55 444.468 Q2947.23 442.662 2944.53 442.662 Q2941.22 442.662 2939.3 444.861 Q2937.37 447.06 2937.37 450.857 L2937.37 465.509 L2933.09 465.509 L2933.09 450 Q2933.09 446.25 2931.77 444.468 Q2930.45 442.662 2927.7 442.662 Q2924.43 442.662 2922.51 444.884 Q2920.59 447.084 2920.59 450.857 L2920.59 465.509 L2916.31 465.509 L2916.31 439.584 L2920.59 439.584 L2920.59 443.611 Q2922.05 441.227 2924.09 440.093 Q2926.12 438.959 2928.92 438.959 Q2931.75 438.959 2933.72 440.394 Q2935.71 441.829 2936.66 444.56 Z" fill="#000000" fill-rule="nonzero" fill-opacity="1"></path><path clip-path="url(#clip920)" d="M2984.83 451.482 L2984.83 453.565 L2965.24 453.565 Q2965.52 457.963 2967.88 460.278 Q2970.27 462.57 2974.5 462.57 Q2976.96 462.57 2979.25 461.968 Q2981.56 461.366 2983.83 460.162 L2983.83 464.19 Q2981.54 465.162 2979.13 465.671 Q2976.73 466.181 2974.25 466.181 Q2968.04 466.181 2964.41 462.57 Q2960.8 458.958 2960.8 452.801 Q2960.8 446.435 2964.23 442.709 Q2967.67 438.959 2973.51 438.959 Q2978.74 438.959 2981.77 442.338 Q2984.83 445.695 2984.83 451.482 M2980.57 450.232 Q2980.52 446.736 2978.6 444.653 Q2976.7 442.57 2973.55 442.57 Q2969.99 442.57 2967.84 444.584 Q2965.71 446.597 2965.38 450.255 L2980.57 450.232 Z" fill="#000000" fill-rule="nonzero" fill-opacity="1"></path><path clip-path="url(#clip920)" d="M3013.37 449.861 L3013.37 465.509 L3009.11 465.509 L3009.11 450 Q3009.11 446.32 3007.67 444.491 Q3006.24 442.662 3003.37 442.662 Q2999.92 442.662 2997.93 444.861 Q2995.94 447.06 2995.94 450.857 L2995.94 465.509 L2991.66 465.509 L2991.66 439.584 L2995.94 439.584 L2995.94 443.611 Q2997.47 441.273 2999.53 440.116 Q3001.61 438.959 3004.32 438.959 Q3008.79 438.959 3011.08 441.736 Q3013.37 444.491 3013.37 449.861 Z" fill="#000000" fill-rule="nonzero" fill-opacity="1"></path><path clip-path="url(#clip920)" d="M3026.08 432.223 L3026.08 439.584 L3034.85 439.584 L3034.85 442.894 L3026.08 442.894 L3026.08 456.968 Q3026.08 460.139 3026.93 461.042 Q3027.81 461.945 3030.48 461.945 L3034.85 461.945 L3034.85 465.509 L3030.48 465.509 Q3025.54 465.509 3023.67 463.681 Q3021.79 461.829 3021.79 456.968 L3021.79 442.894 L3018.67 442.894 L3018.67 439.584 L3021.79 439.584 L3021.79 432.223 L3026.08 432.223 Z" fill="#000000" fill-rule="nonzero" fill-opacity="1"></path><path clip-path="url(#clip920)" d="M3052.23 452.477 Q3047.07 452.477 3045.08 453.658 Q3043.09 454.838 3043.09 457.685 Q3043.09 459.954 3044.57 461.296 Q3046.08 462.616 3048.65 462.616 Q3052.19 462.616 3054.32 460.116 Q3056.47 457.593 3056.47 453.426 L3056.47 452.477 L3052.23 452.477 M3060.73 450.718 L3060.73 465.509 L3056.47 465.509 L3056.47 461.574 Q3055.01 463.935 3052.84 465.07 Q3050.66 466.181 3047.51 466.181 Q3043.53 466.181 3041.17 463.958 Q3038.83 461.713 3038.83 457.963 Q3038.83 453.588 3041.75 451.366 Q3044.69 449.144 3050.5 449.144 L3056.47 449.144 L3056.47 448.727 Q3056.47 445.787 3054.53 444.19 Q3052.6 442.57 3049.11 442.57 Q3046.89 442.57 3044.78 443.102 Q3042.67 443.634 3040.73 444.699 L3040.73 440.764 Q3043.07 439.861 3045.27 439.422 Q3047.47 438.959 3049.55 438.959 Q3055.17 438.959 3057.95 441.875 Q3060.73 444.792 3060.73 450.718 Z" fill="#000000" fill-rule="nonzero" fill-opacity="1"></path><path clip-path="url(#clip920)" d="M3069.5 429.491 L3073.76 429.491 L3073.76 465.509 L3069.5 465.509 L3069.5 429.491 Z" fill="#000000" fill-rule="nonzero" fill-opacity="1"></path><path clip-path="url(#clip920)" d="M3112.51 446.875 Q3115.87 447.593 3117.74 449.861 Q3119.64 452.13 3119.64 455.463 Q3119.64 460.579 3116.12 463.38 Q3112.6 466.181 3106.12 466.181 Q3103.95 466.181 3101.63 465.741 Q3099.34 465.324 3096.89 464.468 L3096.89 459.954 Q3098.83 461.088 3101.15 461.667 Q3103.46 462.246 3105.98 462.246 Q3110.38 462.246 3112.67 460.509 Q3114.99 458.773 3114.99 455.463 Q3114.99 452.408 3112.84 450.695 Q3110.71 448.959 3106.89 448.959 L3102.86 448.959 L3102.86 445.116 L3107.07 445.116 Q3110.52 445.116 3112.35 443.75 Q3114.18 442.361 3114.18 439.769 Q3114.18 437.107 3112.28 435.695 Q3110.41 434.26 3106.89 434.26 Q3104.97 434.26 3102.77 434.676 Q3100.57 435.093 3097.93 435.973 L3097.93 431.806 Q3100.59 431.065 3102.91 430.695 Q3105.24 430.324 3107.3 430.324 Q3112.63 430.324 3115.73 432.755 Q3118.83 435.162 3118.83 439.283 Q3118.83 442.153 3117.19 444.144 Q3115.54 446.111 3112.51 446.875 Z" fill="#000000" fill-rule="nonzero" fill-opacity="1"></path><polyline clip-path="url(#clip920)" style="stroke:#660066; stroke-linecap:round; stroke-linejoin:round; stroke-width:4; stroke-opacity:1; fill:none" stroke-dasharray="16, 10" points="2542.86,500.069 2734.75,500.069 "></polyline>
<circle clip-path="url(#clip920)" cx="2638.81" cy="500.069" r="20.48" fill="#660066" fill-rule="evenodd" fill-opacity="1" stroke="#000000" stroke-opacity="1" stroke-width="3.98222"></circle>
<path clip-path="url(#clip920)" d="M2766.73 482.789 L2788.58 482.789 L2788.58 486.725 L2771.4 486.725 L2771.4 496.956 L2787.86 496.956 L2787.86 500.891 L2771.4 500.891 L2771.4 513.414 L2788.99 513.414 L2788.99 517.349 L2766.73 517.349 L2766.73 482.789 Z" fill="#000000" fill-rule="nonzero" fill-opacity="1"></path><path clip-path="url(#clip920)" d="M2818.05 491.424 L2808.67 504.039 L2818.53 517.349 L2813.51 517.349 L2805.96 507.164 L2798.42 517.349 L2793.39 517.349 L2803.46 503.785 L2794.25 491.424 L2799.27 491.424 L2806.15 500.66 L2813.02 491.424 L2818.05 491.424 Z" fill="#000000" fill-rule="nonzero" fill-opacity="1"></path><path clip-path="url(#clip920)" d="M2828.67 513.461 L2828.67 527.21 L2824.39 527.21 L2824.39 491.424 L2828.67 491.424 L2828.67 495.359 Q2830.01 493.044 2832.05 491.933 Q2834.11 490.799 2836.96 490.799 Q2841.68 490.799 2844.62 494.549 Q2847.58 498.299 2847.58 504.41 Q2847.58 510.521 2844.62 514.271 Q2841.68 518.021 2836.96 518.021 Q2834.11 518.021 2832.05 516.91 Q2830.01 515.775 2828.67 513.461 M2843.16 504.41 Q2843.16 499.711 2841.22 497.049 Q2839.3 494.363 2835.92 494.363 Q2832.54 494.363 2830.59 497.049 Q2828.67 499.711 2828.67 504.41 Q2828.67 509.109 2830.59 511.794 Q2832.54 514.456 2835.92 514.456 Q2839.3 514.456 2841.22 511.794 Q2843.16 509.109 2843.16 504.41 Z" fill="#000000" fill-rule="nonzero" fill-opacity="1"></path><path clip-path="url(#clip920)" d="M2876.82 503.322 L2876.82 505.405 L2857.24 505.405 Q2857.51 509.803 2859.87 512.118 Q2862.26 514.41 2866.49 514.41 Q2868.95 514.41 2871.24 513.808 Q2873.55 513.206 2875.82 512.002 L2875.82 516.03 Q2873.53 517.002 2871.12 517.511 Q2868.72 518.021 2866.24 518.021 Q2860.04 518.021 2856.4 514.41 Q2852.79 510.798 2852.79 504.641 Q2852.79 498.275 2856.22 494.549 Q2859.67 490.799 2865.5 490.799 Q2870.73 490.799 2873.76 494.178 Q2876.82 497.535 2876.82 503.322 M2872.56 502.072 Q2872.51 498.576 2870.59 496.493 Q2868.69 494.41 2865.55 494.41 Q2861.98 494.41 2859.83 496.424 Q2857.7 498.437 2857.37 502.095 L2872.56 502.072 Z" fill="#000000" fill-rule="nonzero" fill-opacity="1"></path><path clip-path="url(#clip920)" d="M2898.83 495.405 Q2898.11 494.988 2897.26 494.803 Q2896.42 494.595 2895.41 494.595 Q2891.8 494.595 2889.85 496.956 Q2887.93 499.294 2887.93 503.692 L2887.93 517.349 L2883.65 517.349 L2883.65 491.424 L2887.93 491.424 L2887.93 495.451 Q2889.27 493.09 2891.42 491.956 Q2893.58 490.799 2896.66 490.799 Q2897.1 490.799 2897.63 490.868 Q2898.16 490.914 2898.81 491.03 L2898.83 495.405 Z" fill="#000000" fill-rule="nonzero" fill-opacity="1"></path><path clip-path="url(#clip920)" d="M2903.3 491.424 L2907.56 491.424 L2907.56 517.349 L2903.3 517.349 L2903.3 491.424 M2903.3 481.331 L2907.56 481.331 L2907.56 486.725 L2903.3 486.725 L2903.3 481.331 Z" fill="#000000" fill-rule="nonzero" fill-opacity="1"></path><path clip-path="url(#clip920)" d="M2936.66 496.4 Q2938.25 493.53 2940.48 492.164 Q2942.7 490.799 2945.71 490.799 Q2949.76 490.799 2951.96 493.646 Q2954.16 496.47 2954.16 501.701 L2954.16 517.349 L2949.87 517.349 L2949.87 501.84 Q2949.87 498.113 2948.55 496.308 Q2947.23 494.502 2944.53 494.502 Q2941.22 494.502 2939.3 496.701 Q2937.37 498.9 2937.37 502.697 L2937.37 517.349 L2933.09 517.349 L2933.09 501.84 Q2933.09 498.09 2931.77 496.308 Q2930.45 494.502 2927.7 494.502 Q2924.43 494.502 2922.51 496.724 Q2920.59 498.924 2920.59 502.697 L2920.59 517.349 L2916.31 517.349 L2916.31 491.424 L2920.59 491.424 L2920.59 495.451 Q2922.05 493.067 2924.09 491.933 Q2926.12 490.799 2928.92 490.799 Q2931.75 490.799 2933.72 492.234 Q2935.71 493.669 2936.66 496.4 Z" fill="#000000" fill-rule="nonzero" fill-opacity="1"></path><path clip-path="url(#clip920)" d="M2984.83 503.322 L2984.83 505.405 L2965.24 505.405 Q2965.52 509.803 2967.88 512.118 Q2970.27 514.41 2974.5 514.41 Q2976.96 514.41 2979.25 513.808 Q2981.56 513.206 2983.83 512.002 L2983.83 516.03 Q2981.54 517.002 2979.13 517.511 Q2976.73 518.021 2974.25 518.021 Q2968.04 518.021 2964.41 514.41 Q2960.8 510.798 2960.8 504.641 Q2960.8 498.275 2964.23 494.549 Q2967.67 490.799 2973.51 490.799 Q2978.74 490.799 2981.77 494.178 Q2984.83 497.535 2984.83 503.322 M2980.57 502.072 Q2980.52 498.576 2978.6 496.493 Q2976.7 494.41 2973.55 494.41 Q2969.99 494.41 2967.84 496.424 Q2965.71 498.437 2965.38 502.095 L2980.57 502.072 Z" fill="#000000" fill-rule="nonzero" fill-opacity="1"></path><path clip-path="url(#clip920)" d="M3013.37 501.701 L3013.37 517.349 L3009.11 517.349 L3009.11 501.84 Q3009.11 498.16 3007.67 496.331 Q3006.24 494.502 3003.37 494.502 Q2999.92 494.502 2997.93 496.701 Q2995.94 498.9 2995.94 502.697 L2995.94 517.349 L2991.66 517.349 L2991.66 491.424 L2995.94 491.424 L2995.94 495.451 Q2997.47 493.113 2999.53 491.956 Q3001.61 490.799 3004.32 490.799 Q3008.79 490.799 3011.08 493.576 Q3013.37 496.331 3013.37 501.701 Z" fill="#000000" fill-rule="nonzero" fill-opacity="1"></path><path clip-path="url(#clip920)" d="M3026.08 484.063 L3026.08 491.424 L3034.85 491.424 L3034.85 494.734 L3026.08 494.734 L3026.08 508.808 Q3026.08 511.979 3026.93 512.882 Q3027.81 513.785 3030.48 513.785 L3034.85 513.785 L3034.85 517.349 L3030.48 517.349 Q3025.54 517.349 3023.67 515.521 Q3021.79 513.669 3021.79 508.808 L3021.79 494.734 L3018.67 494.734 L3018.67 491.424 L3021.79 491.424 L3021.79 484.063 L3026.08 484.063 Z" fill="#000000" fill-rule="nonzero" fill-opacity="1"></path><path clip-path="url(#clip920)" d="M3052.23 504.317 Q3047.07 504.317 3045.08 505.498 Q3043.09 506.678 3043.09 509.525 Q3043.09 511.794 3044.57 513.136 Q3046.08 514.456 3048.65 514.456 Q3052.19 514.456 3054.32 511.956 Q3056.47 509.433 3056.47 505.266 L3056.47 504.317 L3052.23 504.317 M3060.73 502.558 L3060.73 517.349 L3056.47 517.349 L3056.47 513.414 Q3055.01 515.775 3052.84 516.91 Q3050.66 518.021 3047.51 518.021 Q3043.53 518.021 3041.17 515.798 Q3038.83 513.553 3038.83 509.803 Q3038.83 505.428 3041.75 503.206 Q3044.69 500.984 3050.5 500.984 L3056.47 500.984 L3056.47 500.567 Q3056.47 497.627 3054.53 496.03 Q3052.6 494.41 3049.11 494.41 Q3046.89 494.41 3044.78 494.942 Q3042.67 495.474 3040.73 496.539 L3040.73 492.604 Q3043.07 491.701 3045.27 491.262 Q3047.47 490.799 3049.55 490.799 Q3055.17 490.799 3057.95 493.715 Q3060.73 496.632 3060.73 502.558 Z" fill="#000000" fill-rule="nonzero" fill-opacity="1"></path><path clip-path="url(#clip920)" d="M3069.5 481.331 L3073.76 481.331 L3073.76 517.349 L3069.5 517.349 L3069.5 481.331 Z" fill="#000000" fill-rule="nonzero" fill-opacity="1"></path><path clip-path="url(#clip920)" d="M3111.19 486.863 L3099.39 505.312 L3111.19 505.312 L3111.19 486.863 M3109.97 482.789 L3115.85 482.789 L3115.85 505.312 L3120.78 505.312 L3120.78 509.201 L3115.85 509.201 L3115.85 517.349 L3111.19 517.349 L3111.19 509.201 L3095.59 509.201 L3095.59 504.687 L3109.97 482.789 Z" fill="#000000" fill-rule="nonzero" fill-opacity="1"></path></svg>